/* XPM */
static char *_eba71280a8e4144dc77c34cc717d476yOynQnATQqqO6VYc[] = {
/* columns rows colors chars-per-pixel */
"64 64 223 2 ",
"   c #4F1D02",
".  c #531C05",
"X  c #5D1D06",
"o  c #551E0A",
"O  c #5C1E09",
"+  c #631E0B",
"@  c #621B05",
"#  c #4D2404",
"$  c #4C260A",
"%  c #4D2B0A",
"&  c #542206",
"*  c #5B2105",
"=  c #55230C",
"-  c #5B240C",
";  c #55290B",
":  c #5A2B0E",
">  c #5A2A06",
",  c #4F2713",
"<  c #542411",
"1  c #5B2512",
"2  c #552911",
"3  c #5C2A14",
"4  c #5D2619",
"5  c #5C2A1A",
"6  c #652605",
"7  c #672807",
"8  c #63240C",
"9  c #6B250D",
"0  c #64290E",
"q  c #6B2A0D",
"w  c #6E2A07",
"e  c #74260D",
"r  c #732C0E",
"t  c #7A2B0E",
"y  c #6E310E",
"u  c #632513",
"i  c #6B2512",
"p  c #642A13",
"a  c #6C2B13",
"s  c #652D18",
"d  c #6D2C1A",
"f  c #66261A",
"g  c #732511",
"h  c #792613",
"j  c #732B14",
"k  c #7B2C15",
"l  c #742D1A",
"z  c #7B2D1B",
"x  c #6A3215",
"c  c #6E311A",
"v  c #633212",
"b  c #743115",
"n  c #7B3215",
"m  c #74331B",
"M  c #7C331C",
"N  c #733A1D",
"B  c #7C391D",
"V  c #782F20",
"C  c #742F20",
"Z  c #763320",
"A  c #7B3422",
"S  c #743A22",
"D  c #7B3B22",
"F  c #7C3C2B",
"G  c #763B2B",
"H  c #79412A",
"J  c #81220C",
"K  c #85310F",
"L  c #832C15",
"P  c #832D1B",
"I  c #8A2B17",
"U  c #843315",
"Y  c #8A3315",
"T  c #83341B",
"R  c #8A341C",
"E  c #84381C",
"W  c #8C3A1C",
"Q  c #893E17",
"!  c #9A3B15",
"~  c #92361D",
"^  c #9B341D",
"/  c #943A1C",
"(  c #9A3B1E",
")  c #973416",
"_  c #A13E1F",
"`  c #842E22",
"'  c #833422",
"]  c #8B3523",
"[  c #853B24",
"{  c #8B3B24",
"}  c #833E29",
"|  c #8D3E28",
" . c #933522",
".. c #9C3522",
"X. c #943C24",
"o. c #9C3C24",
"O. c #933C2A",
"+. c #9B3E2A",
"@. c #A33C24",
"#. c #AB3D24",
"$. c #A53E2B",
"%. c #AC3E2B",
"&. c #99401D",
"*. c #A6421F",
"=. c #AA451E",
"-. c #AB481E",
";. c #8D4127",
":. c #84412C",
">. c #8E412A",
",. c #814B2F",
"<. c #954326",
"1. c #9C4223",
"2. c #94432B",
"3. c #9B432C",
"4. c #9C4A2E",
"5. c #964531",
"6. c #9D4532",
"7. c #9D4B33",
"8. c #974D3B",
"9. c #9A4E39",
"0. c #944936",
"q. c #9D503C",
"w. c #96523B",
"e. c #A54224",
"r. c #AC4324",
"t. c #A44C27",
"y. c #AC4B25",
"u. c #A4442B",
"i. c #AC452B",
"p. c #A44A2C",
"a. c #AC4B2C",
"s. c #B14326",
"d. c #B44A26",
"f. c #B3452B",
"g. c #BD452D",
"h. c #B34B2C",
"j. c #BA4C2D",
"k. c #A5512E",
"l. c #AD512E",
"z. c #B5522C",
"x. c #B8552E",
"c. c #A44532",
"v. c #AB4532",
"b. c #A34B34",
"n. c #AC4C33",
"m. c #A44D3A",
"M. c #AC4D3A",
"N. c #B34631",
"B. c #BB4532",
"V. c #B34C33",
"C. c #BA4C34",
"Z. c #B44E39",
"A. c #BB4E3A",
"S. c #A55135",
"D. c #AC5235",
"F. c #AE5A35",
"G. c #A4523B",
"H. c #AC543B",
"J. c #AD5A3C",
"K. c #B35335",
"L. c #BA5234",
"P. c #B25936",
"I. c #BC5837",
"U. c #B4543B",
"Y. c #BA543C",
"T. c #B45A3D",
"R. c #BA593D",
"E. c #C14B2F",
"W. c #C25237",
"Q. c #C2543C",
"!. c #C0583D",
"~. c #B14C40",
"^. c #AC5641",
"/. c #A55C45",
"(. c #AE5C42",
"). c #AE5F49",
"_. c #A45745",
"`. c #B55542",
"'. c #BC5541",
"]. c #B15E45",
"[. c #B45B43",
"{. c #BA5A40",
"}. c #BB5B43",
"|. c #B45D4A",
" X c #BC5E4A",
".X c #B9574A",
"XX c #BF5D52",
"oX c #AE624C",
"OX c #B56145",
"+X c #BB6246",
"@X c #BB6847",
"#X c #B5634B",
"$X c #BD664E",
"%X c #BC634B",
"&X c #B56A4C",
"*X c #BE684E",
"=X c #BB694D",
"-X c #AE6650",
";X c #B56452",
":X c #BC6552",
">X c #B46951",
",X c #BC6953",
"<X c #BE6658",
"1X c #BB705D",
"2X c #C15543",
"3X c #C15B43",
"4X c #C25D4A",
"5X c #C85E50",
"6X c #C05E51",
"7X c #C16346",
"8X c #C2644C",
"9X c #C2694D",
"0X c #CC624B",
"qX c #C36552",
"wX c #C96554",
"eX c #C26A53",
"rX c #CA6A53",
"tX c #C26B59",
"yX c #CB6E5D",
"uX c #C67059",
"iX c #CD725D",
"pX c #C07E64",
"aX c #C7806A",
/* pixels */
"< 1 < 1 1 1 3 1 2 5 1 = 3 5 = 3 2 = 1 3 < 1 5 = < 3 = 3 1 1 1 = 1 3 = 3 1 - 1 4 ; 3 < < 2 5 = 3 1 1 = 3 - - 1 1 2 = 1 < < s < , ",
"= : = ; - = = = = = - - - - - - p 0 X - - O - p 3 = & & = 1 1 - . = = = & & 3 o X 8 8 X - 8 - 8 = = ; ; = & - ; 2 X X 0 p 8 O : ",
"X.+.o.+.+.X.o. .g k O.3.3.2.O.3.E 2.>.2.{ T >.oX:.b E ;.[ { [ [ [ [ >.{ R { } i e { 2.2.>.>.| >.O.| | O.o. .X.] u [ X.<.<.O.[ 0 ",
"Y.}.Y.R.Y.Y.Y.V.j T (.*X=X*X:X%X9X9X%X}.U.p.m.}.' k J.9X%XrXrXrX9X+X X}.2X}.^.z T (.eXeX8X$X$XeXqXqX%X8X4XY.U.@.8 G.[.K.P.'.H.9 ",
"H.T.U.J.T.H.H.n.j M ].,X$X$X*X%X{.U.}.Y.M.v.`.}.Z j OXeX&X|.].|.T.D.H.U.L.K.G.e P ^.%XOX$X$X%X|.[.].[.U.U.a.p./ i m.Y.Y.I.Y.`.l ",
"V.Y.K.R.Y.Y.Y.N.l T %XqX8X}.}.U.U.D.U.U.e.u.U.}.F j U.+X}.[.[.U.R.U.R.U.A.Y.H.k T OXeX$X:X%X}.[.A.K.Y.V.C.f.j.r.f m.U.K.R.A.`.' ",
"Z.Y.U.T.T.R.Y.v.a m #X*X+X[.H.H.T.K.v.K.M.V.U.R.' h i.C.V.K.U.C.L.U.U.u.B.Y.`.k L OXeX%X}.U.U.Z.R.K.K.#.i.@.i.( 9 6.}.D.U.Y.'.E ",
"Z.R.U.U.U.U.U.f.j U %X}.Y.K.Y.2Xa.n.K.R.I.a.a.+XS t i.i.h.a.K.a.a.p.7.E u.}.#Xa T OX+XU.`.U.Y.Y.V.r.t._ f.r.a.( e 3.}.H.I.Y.}.<.",
"Z.Y.2X'.Y.}.Z.%.s n T.Y.K.T.a.y.l.K.}.S.P.L.u.+XD q h.K.(.'.U.F.T.L.K.J.<.^.#Xj U [.U.Y.R.Z.V.h.#.#.%.#.f.e.u.o.9 b.Y.U.P.L.K./ ",
"y.y.y.r.y.z.y._ j P Z.'.Z.Z.V.Z.U.Y.'.U.'.Y.i.%X} j N.`.[.'.Z.n.M.Y.'.[.^.yXtXg Y T.R.I.K.l.y.#.-.-.d.=.r.-.y.! j b.Y.R.Z.h.i.o.",
"u.@.@.@.u.o.@.@.u M R 3.7.oXoX].#X|.].oX;X#X|.pXZ j $.D.)..X|.#X/.|.#XoX8.q.0.x L a.h.i.@.a.V.$.f.i.N.%.e.v.v.( a { +.+.o.^ ..X.",
"- p u u p 1 - 8 - 0 q @ 8 p a 0 3 u 7 8 0 8 8 N 3 & 9 q v u i : a 9 + p 9 9 9 0 p 0 8 s 0 p a u p u u u d d u 0 = i q q q j a 0 ",
"g O.2.3.3.2.6.3.O.3.X.<.{ 5.M T - i { O.5.O.O.{ <.X.o. .X.~ ..j j { O.[ { +. .[ { 5.O.L ] |.8.+ ~ 1.X.3.u.W I 3.3.v.u.u.a.v. .q ",
"t D.`.U.}.R.}.R.}.3XU.D.M.qXc.~ - T n.%XqXwXwX7X%X$X%X XOXH.V.M b $XuX=X=XqX8XeX+XT.D.p.M.[.[ 6 v.3XR.I.U.( Y a.}.R.R.U.T.}.2.0 ",
"j G.[.^.U.H.U.U.Z.K.OX4.`.H.+X1.1 T a.+X#X<XqX+X%XqX:XwX%XK.B.t B &X%X&X,X%X[.(.R.T.F.p.S.].B x n.T.U.G.b.3.{ ;.v.Z.I.H.U.2X3.q ",
"j G.`.U.}.U.R.Y.U.n.4.OXOX[.U.1.1 T V.9X;X:X,X&X=X:X-X,X&XF.C.j T eXqX$X%X'.Y.U.U.K.a.@.'.4XA f K.U.v.b.S.,X&X9.W 1.T.U.U.'.3.i ",
"r K.I.K.J.p.u.p.b.D.(.%XU.Y.%X6.> t Z.8X=X>X%X@X@X*X&X%X+XI.C.q B tX8X[.J.U.'.U.v.V.D.V.Z.'.{ u u.a.a.K.Y.K.K.L.OXb.<.G.R.R.b.i ",
"0 G.}.H.7.G.#XJ.OX(.(.OXU.M.+X7.= z ~.qX:X:X:X:X|.}.].}.}.U.A.q M |.Y.U.T.K.V.a.Z.K.P.l.a.}.} - 1.M.U.U.}.`.[.'.J.[.G.k.b.R.b.0 ",
"j M.Z.u.M.`..XU.U.K.Z.V.R.A.rXb.; T K.R.T.}.T.T.T.+XD.U.U.D.Z.q n }.Y.K.U.y.V.L.Y.T.}.V.u. X[ - $.}.'.U.U.U.U.`.K.U.Y.n.Y.0Xb.u ",
"q 3.u.k.OXOXU.T.J.}.+X}.+X8XeX2.= z n.U.K.Y.Z.H.i.h.r.f.y.r.i.w L `.Y.M.U.Z.Z.U.`.U.T.U.v.qX[ + ( I.R.U.R.Y.[.}.].U.T.|.eXiX9.u ",
"9 L 1.b.b.v.M.S.D.^.M.H.M.H.M.P 8 R y.h.h.j.f.d.g.h.E.B.h.%.N.L j 2.5.9.#X|.#XoX:X#X;X;X).1X:.s <.J.T.(.(.J.G.J.|.[. XD.H.H.] O ",
"= 0 i 0 u i i p 0 - 8 q - 0 - - , u a i s j g j x : g p : 0 p $ - 0 + : d i i 5 - 8 8 9 0 S 1 O 8 i q f i 8 9 9 1 8 7 6 8 f p 3 ",
"' O.R z ]  .I T a 9 { [ [ [ [ 2.>.X.X.{ X...^ @.a - ` z b P M S m n M b M k M p a } [ T M [ A A B B M T M B ' M u k Y E ' ] ' T ",
"Y.U.I.K.i.%.f.t.j ' qX%XeXrX8X9X*X7X7X=X$XY.r.L.E n 2X8X=X0X%X:X8X8X8XJ.'.3XU.j L [.8X8XqX8X8X8X8X%X%X8X}.I.L.@.9 b.R.}.4XwX4Xv.",
"`.U.U.R.Y.f.r.@.j R :X:X<X;X:X$X%X#X,X#X$XU.r.j.M b }.&X#X&X#X X[.U.U.F.Y.A.V.j P (.,X,X;X,XeX XOXOX[.U.R.V.n.o.p o.J.,X,X=X=X7.",
"T.H.U.U.v.t.e.r.k E %X%X$X:X*X*X9X,X,X:XqX}.r.j.T M Y.@X}.|.[.U.H.Y.T.T.v.2X`.a n T.%X*X%X%X}.Y.U.T.K.K.h.d.i.*.i @.T.qXqX}.}.6.",
"R.R.K.h.r.#._ s.a b @X%X:X:X=X%X@X=X=X&X@XP.r.z.M t N.U.A.U.U.Y.K.R.U.a.u.Y.[.a n %X9X%XOXJ.D.U.T.D.n.y.y.r.i.! i o.T.:X4X[.[.b.",
"L.V.i.r.s.s.s.s.l T ,XqXqXqXqX8X+X}.}.[.}.R.s.j.m x r.p.a.a.a.a.K.i._ Y S.R.|.q P  X X}.}.Y.Y.2XA.i.%.f.#.%.V.^ p o.J.OX`.T.T.6.",
"e.*._ _ =.r.r.r.d M OX].`.[.[.[.Y.`.`.U.~.Z.%.B.b b v.K.Y.R.T.R.K.L.R.3.p.M.|.j E }.[.K.T.T.K.V.e.@.i.i.#.#.v.o.u @.P.U.Z.P.h.3.",
"#.r.f.f.s.s.%.f.q U T.L.I.V.K.D.a.h.i.r.f.i.=.s.j b f.U.2XU.Z.c.H.Z.}.(.G.1XuX9 K T.U.K.L.h.e.*.s.-.r.y.r.r.y./ l f.K.U.A.C.f.@.",
"$.u.$.u.$.o.@.o.h ~ V.j.W.f.B.f.j.j.d.f.d.d.j.d.l m c.J. X#X:X%XoX#X:X>Xw._._.a I V.C.A.V.i.f.j.V.f.s.f.B.f.V...d ..1.1.$.1.o.W ",
"j a q i i a p 0 = s l j M 9 l j a a a d a j d a 1 = e a m d c m l M g a c 8 i u s m 8 a b q q j q q a q j i d u < g q j k e t d ",
"- z Y k R R R W W R R R ~ ~ / Y = j W Y / X.M S E o.X.X.( @.{ 0 - I U U R E R U R R E T R ) U 1 k O.W { { { { W / ~ ] E T T z u ",
"i c.8X&X:X%X+X%X%XOXOX].U.v.n.i.3 >.{.{.OXm.6.7.b.%X}.U.U.4X`.m l v.OX%X%X&X%X+X%X}.OX|.U.h.X.p o.+XH.U.3X}.Y.'.T.Y.J.7.&XD.{ a ",
"0 c.wX=XeX%X:X8X8X*X,X8X}.h.h.e.. 6.2XU.G.b.b.a.<.p.U.T.R.Y.M.k 8 $.%X9XeX#X%X:X,X:X,X,X'.j.X.8 <.J.J.[.F.D.R.U.}.Z.H.H.].'.3.8 ",
"i m.qXOX:XqX,X:X:XOX$XqX}.h.i.r.- 7.U.b.^.H.}.K.S.~ p.{.V.A.R.k b v.%X$X$X:X:X,X:X%X=X:X}.A.o.u 1.U.n.I.}.Y.Z.Y.H.M.U.|.S.2Xb.9 ",
"0 c.eX&X:XqX,XOX,X=X=X$X3XV.a.t.- [ 4.m.[.Z.U.K.H.[.p.W T.}.n.k a v.OX&X%X>X<X,X,X%X*X:X}.L./ u u.3XU.U.S.u.3.n.m.U.OXH.{.Y.3.9 ",
": b.9X%XeX:X,X%X=XOXOX[.}.a.i.*.X ' 7.F.[.A.Y.J.T.T.^.<.3.[.|.q a i.%X*XqX$X8X%X&X+XOX|.Y.h.W - X.U.(.H.4.G.OX(.T.[.[.H.T.8Xb.0 ",
"0 c.8X].}.[.[.T.R.`.T.U.U.i.h.e.o [ T.K.D.Y.}.U.K.Z.[.G.b.`.#Xm q i.+X+X[.[.}.T.U.K.U.U.Y.j.X.p @..Xu.u.[.4XU.U.T.U.Z.T.p.0XG.- ",
"0 +.Y.F.U.Z.K.V.N.v.n.i.v.#.i.( < T !.!.K.U.'.`.Y.Z. X(.#XrXtXl a %.U.U.Z.U.Z.V.K.a.i.i.f.s.~ - { p.4.J.[.H.U.'.K.3X}.U.7XrXG.1 ",
"J u.R.L.W.C.j.j.d.j.j.d.j.C.V./ @ ' |.$X[.%X|.[.[.%X].}.|.8XS.r U f.j.j.j.E.g.d.d.d.d.d.j.V.W 6 U W n.K.Z.U.].J.J.T.].T.].T.X.9 ",
"- m m j j t j n M m j g l z l i : * 9 q l M j a d p a b 8 8 f - : m j m a j j N z z l k z z f 3 i p d f a j a 8 s p q i i i 1 , ",
"m Z l z M k j l 0 - m M M M M z m A M z h e j 7.F 8 j M l g d i s f i s u l a - 8 a m M k z V V Z l m l z k l j - l l z P z l 5 ",
"U.U.K.Y.Y.Y.U.v.y n J.+X{.+X[.%X X X4X X~.c.M.eX[ r D.{.}.%X$X%X+X4X}.[.U.3XH.k Y F.+X[.[.+X X}. X X+X|.T.V.L.i.q b.Z.Y.'.U.m.9 ",
"C.I.K.Y.I.Y.U.f.g z |.:X:X,X$X<X+X[.{.R.M.p.H.U.m j %X*X+X[.%X+XR.R.!.K.K.Y.M.e P |.eX=X,X,XrX:X X+XT.T.I.K.y.! q G.I.V.R.Y.U.r ",
"U.U.U.U.U.`.U.p.l P :XqX:X:XOX`.T.K.T.K.t.p.T.[.G l (. X$X%X|.[.U.U.U.H.H.Y.H.M P `.:X:X,X#X|.[.U.`.H.U.U.i.V.o.8 7.'.Z.R.Z.U.M ",
"Z.U.[.[.U.U.'.i.k P 4X8X+X].}.V.R.V.a.V.a.a.U.T.A z V.Y.Y.U.Z.Z.Y.R.U.D.U.'.M.j T [.8X8X%XT.U.K.Y.Y.K.N.f.%.v.e.u c.4XY.}.U.`.] ",
"L.K.K.T.H.P.L.a.x z %X$XT.S.}.!.v.K.n.Y.R.i.M.8Xm L e.r.a.a.K.h.n.a.u.Q u.2X[.q n @X8XT.H.H.{.Y.K.D.e.r.f.r.a.! p 6.I.l.T.K.R.X.",
"S.F.Y.U.U.}.K.i.i E T.z.L.!.L.y.t.K.T.D.T.L.i.OXG j N.U.H.2XU.K.P.L.n.b.2.(.).b T 4XQ.n.T.'.I.h.r.#.s.s.r.r.h._ + M.Y.Y.U.Y.Y.o.",
"z.L.V.V.V.V.i.r.l n U.V.}.v.v.V.Z.Q.2XZ.U.V.%. XS e i.F.U.U.S.k.n.Y.'.M.H.tXeXj b U.!.U.T.n.i.e.e.e.i.r.r.e.i.X.7 b.U.P.K.a.i.( ",
"i.#.#.%.f.i.%.#.d z 2.M.m.|.].%X;X%X:X$X,X:X;XaXA z i.T.%X4X|.OXoX:X:X#X_.|.^.l Q K.L.L.K.s.f.h.h.f.d.d.d.r.h.&.e 3.c.a.e.#.r.o.",
"a l g j j a j i 8 9 j 9 j } :.D S A B N D D m ,.s + z B D ' } F D B M D m g j 8 p z h j k L P C M h z L P M M f - j h j j k z a ",
"- D D M D S B B E M T M j m j 9 . 9 t k z P k z m M z j j j j - * j j j k k E b A ' ` A E ] z - j M M ' ' V m c [ { ] { { { M - ",
"k n.Y.U.Y.Y.}.Y.U.U.U.U.m.(.b./ 3 T a.[.|. X4X[.T.2X}.U.L.V.V.U n ^.}.|.|.}.4X].I.I.2XK.d.d.1.7 a.I.I.T.n.u.p.t.'.Q.Q.Y.2X2Xp.j ",
"t J.T.K.T.K.T.K.Y.Y.Y.u.|.[.'.) 3 M S.9X,XqXeX%X&X9X,X:X+XP.V.t e [.rXeXeX8X8X:X:X:XeXOXi.h.3.p v.[.U.H.7.7.2.3.S.l.K.F.K.Y.<.7 ",
"j ^.^.H.U.U.}.'.U.D.H.^.|.(.H.e.u P a.9X:XXXeX%X&X6X;XtX8XU.A.k j #X,X#X;X$X$X&X*X#X<XOXf.j.u.u Z.R.M.G.H.#XU.m.[ p.T.U.U.'.6.i ",
"9 U.!.K.[.U.Z.u.6.J.D.%XU.[.[.1.- k V.9X&X#X:X:XqX>X,X=X*XA.Z.b l oX*X$X,X;X<X,X*X,X:X%Xh.f.u.u 5.7.m.U.U.Y.R.U.Y.7.[ J.R.}.3.9 ",
"b b.U.OX7.<.M.H.[.|.[.R.U.M.8XS.- z Z.9XeX:XqX%X%XOX%X{.+XC.V.q q T.9X+X9X%X+XOX+X%XOX[.h.d.1.* [ S.(.U.U.U.T.K.U.T.4./ U.R.7.i ",
"0 S.T.t.S.J. XT.K.K.[.U.'.U.9Xp.; M M.+XOX}.%X].T.T.T.T.P.C.D.y j (.$X}.%X|.OX[.T.T.T.D.f.f.<.: 3.H.U.T.[.U.U.T.Y.R.T.3.U. X^.8 ",
"j m.v.u.T.}.Y.K.}.D.U.M.'.[.rX3.& z a.R.U.U.U.Z.a.a.h.i.a.f.i.7 h G.`.Z.Z.Z.Z.V.y.h.i.i.r.f.X.& e.Y.Z.Y.Y.A.U.Y.U.M.J.]. XrXG.8 ",
"j P 3.[.^.U.2X}.|.[.&X$X:X%X#X{ 8 R V.R.Y.W.L.V.L.h.C.B.f.B.i.k Y D.W.L.L.A.j.j.h.h.C.C.C.B.+.8 o.+X8X}.}. X}.}.%X,X#X:X,X=X} f ",
"- b B m m z z b n m j j g j M 8 = j T U M T R n T T R T E E T p q E Q E W E U Y T T R M T ] j - 9 D D ' D B D B k z Z l j m i 0 ",
"= 3 . # 3 u . : o - - - 0 - u - , 1 - # ; = = = & = O = $ - - $ < < - = = < = 5 3 & = # $ 1 = % : - & - - = = - p . p - . - p = ",
"5 - - 2 < u 3 $ 1 < , = 3 = < < 1 u 1 < 3 4 1 3 3 f 1 1 , 4 + 5 1 1 - - 5 1 = 3 1 1 3 2 < u - 3 = 5 < 1 < - 3 1 < = 1 < 1 3 = < "
};
