/* XPM */
static char *f9b5ec6adb2e4a85b3be9b7811b7832afuZkCPHu6vazKHN3[] = {
/* columns rows colors chars-per-pixel */
"64 64 215 2 ",
"   c #0A3603",
".  c #043F00",
"X  c #0B3C03",
"o  c #0D3B0C",
"O  c #123E03",
"+  c #103C0B",
"@  c #064502",
"#  c #0C4402",
"$  c #044B01",
"%  c #0C4D03",
"&  c #0D4B08",
"*  c #134404",
"=  c #194406",
"-  c #134C04",
";  c #1C4C05",
":  c #13440A",
">  c #1A450B",
",  c #144D0A",
"<  c #1A4D0B",
"1  c #055501",
"2  c #0C5304",
"3  c #065A02",
"4  c #0B5B04",
"5  c #0D550B",
"6  c #0D5B0A",
"7  c #145405",
"8  c #1A5305",
"9  c #135C05",
"0  c #1A5C06",
"q  c #15540A",
"w  c #1B540B",
"e  c #155B0B",
"r  c #1C5C0C",
"t  c #164012",
"y  c #194C13",
"u  c #1D5612",
"i  c #145C11",
"p  c #1D5C12",
"a  c #214D0A",
"s  c #255107",
"d  c #225C07",
"f  c #22540C",
"g  c #235C0C",
"h  c #2F5E0E",
"j  c #245512",
"k  c #285011",
"l  c #235C12",
"z  c #2A5C15",
"x  c #245B18",
"c  c #2C5918",
"v  c #0D6304",
"b  c #0F6A01",
"n  c #0D640A",
"m  c #0E6A0A",
"M  c #146305",
"N  c #1C6306",
"B  c #146C05",
"V  c #1B6B06",
"C  c #13640B",
"Z  c #1C630C",
"A  c #146B0B",
"S  c #1C6B0C",
"D  c #157203",
"F  c #1B7305",
"G  c #1E7906",
"H  c #14720B",
"J  c #1C730B",
"K  c #157909",
"L  c #1D7B0C",
"P  c #0F6210",
"I  c #146611",
"U  c #146715",
"Y  c #146512",
"T  c #1D6311",
"R  c #176E10",
"E  c #156C11",
"W  c #1B6E11",
"Q  c #1C6D12",
"!  c #1A6E19",
"~  c #177011",
"^  c #177514",
"/  c #1E7211",
"(  c #1D7213",
")  c #1E7A11",
"_  c #1C7C10",
"`  c #1E7A13",
"'  c #1B7318",
"]  c #226406",
"[  c #206C05",
"{  c #22640D",
"}  c #2B640D",
"|  c #236B0D",
" . c #296C0E",
".. c #2B6C04",
"X. c #326D0F",
"o. c #247307",
"O. c #257907",
"+. c #21730E",
"@. c #20770C",
"#. c #20770F",
"$. c #24740D",
"%. c #2A740D",
"&. c #207A09",
"*. c #207D0A",
"=. c #20790F",
"-. c #207C0F",
";. c #227E0F",
":. c #237A0D",
">. c #2B7B0E",
",. c #236413",
"<. c #2A6413",
"1. c #256B13",
"2. c #2A6C14",
"3. c #236518",
"4. c #2B6519",
"5. c #256B19",
"6. c #2B6C1A",
"7. c #316513",
"8. c #326F15",
"9. c #32661A",
"0. c #336D1B",
"q. c #207210",
"w. c #217215",
"e. c #217716",
"r. c #247313",
"t. c #2B7314",
"y. c #217A11",
"u. c #217E12",
"i. c #237F14",
"p. c #267F16",
"a. c #257B13",
"s. c #2C7F13",
"d. c #2B7B14",
"f. c #25741A",
"g. c #2C741A",
"h. c #267B18",
"j. c #2D7B1B",
"k. c #327515",
"l. c #327C15",
"z. c #3B7C17",
"x. c #33741B",
"c. c #3A731C",
"v. c #337B1B",
"b. c #397B1D",
"n. c #2D7121",
"m. c #2B7C20",
"M. c #347321",
"N. c #3A7622",
"B. c #357C22",
"V. c #3B7D23",
"C. c #3A7C2A",
"Z. c #41761E",
"A. c #41791E",
"S. c #417723",
"D. c #437B22",
"F. c #417F29",
"G. c #1C8212",
"H. c #23810E",
"J. c #28800F",
"K. c #2A820E",
"L. c #34850F",
"P. c #268311",
"I. c #268213",
"U. c #258212",
"Y. c #2C8217",
"T. c #2C8214",
"R. c #2B8815",
"E. c #2C831A",
"W. c #2C881B",
"Q. c #338315",
"!. c #3A8416",
"~. c #358914",
"^. c #3B8D16",
"/. c #34821B",
"(. c #3A841C",
"). c #348A1C",
"_. c #3A8B1C",
"`. c #3E951D",
"'. c #3D9213",
"]. c #348223",
"[. c #3B8323",
"{. c #338820",
"}. c #348B22",
"|. c #3D8B24",
" X c #3D832B",
".X c #3D8A2B",
"XX c #379525",
"oX c #3E9123",
"OX c #3E902A",
"+X c #40871D",
"@X c #458D1D",
"#X c #42951D",
"$X c #428324",
"%X c #428C25",
"&X c #4C8C24",
"*X c #448329",
"=X c #4A842B",
"-X c #428D29",
";X c #4C8A2C",
":X c #439324",
">X c #4A9327",
",X c #449C24",
"<X c #44942A",
"1X c #49942B",
"2X c #439A2B",
"3X c #4B9B2D",
"4X c #418131",
"5X c #4A8430",
"6X c #458932",
"7X c #4E8E30",
"8X c #459532",
"9X c #4D9434",
"0X c #4F9C36",
"qX c #509E30",
"wX c #52A435",
/* pixels */
"$ 7 3 2 4 v M U % 2 m 6 P 1 C A S J B C A V A C 4 m H B @./ @.J / B B b L B r.v F L D ) L u.L D D v m m m m m D m 3 v n 3 C e $ ",
"5 % 1 9 e V N 4 m e 3 A m 9 M B B v J &.o.K B A Z V a./.J B H H m m ^ v H / A e.K.^ L L K L G.m m K m ^ A m v A m C 1 4 v n 4 1 ",
"$ % $ 2 Z S N 9 3 v A C Y v B M B v Q +.V w.Q S S K S P.w.V v A ^ ' ^ m J K p.=.I.G ) _ _ L H H H H _ J n n v 6 3 v C 6 v 1 4 6 ",
"& , 2 7 e 0 4 A Z 0 9 9 A H A V C C Q O.a.E.J H A J r.l.p.V e./ -.G ) B J -.R.J.U.U.I.L D K B J G.^ G L ` E S 6 A v 1 E 1 1 4 m ",
"% 2 % 2 1 2 C C U % @ 1 v A Z W y.F D D &.&.G / J / | S Y.I.y.H *.F a.K u.y.F P.J.W.a.F J =.L A H K J =.H.H 3 v m E v 4 n P m 1 ",
"2 6 5 2 % 2 C 9 v C 2 T Z 4 F W S F :.r.d.o.:.V V r.V V G J u.K D K B =./ K J u.L /.W.:.E.p.p.S v L K A &.B W R m A v C 3 n n C ",
"e $ & 5 2 & 1 1.A m W t.0 A 4 +.H K u.J A A A n S 1.$.+._ G.K L ;.a.H r.J a.p.J a.~.{.p.T.-.h.y.e.S F B / J y.( m m A C C Y A v ",
"p 5 @ e 2 @ ! B 4 a.J.h.Q Z j.u.F y./ G V q.A Q.Y.G S J K U.h.N a.P.B V O.:.:.J Y.K F a.T.P.=.B S A v y.) m n ( 4 A S v R A m C ",
"6 2 # 2 m E S S J E.;.;.&.*.J e.K J J u.a.O.P.p.o.d.V :.T.R.L O.J K.a.@.@.1.F ;.R.K.&.u.U.J :.A y.R q.U.J / A / S A E A I.J 4 v ",
"1 6 % v C e C S B V a.q.| V +.q.S r.j.u.d.Y.P.).d.p.a.S >.;.K.d.o.U.p.d.Q S D y.-.a.d.L L u.j.J u.Y.a.a.B w.A J @.L L B H / A W ",
"E 3 e 1.3 C J A 5.V S Q U J :.S S | >.:.o.a.P.#X.XQ.a.d.| ~.Q.:.S P.e.W V / H I.d.:.Q.W.J.Y.}.K u.q.W / O.o.S r.e.V V H Q S E 9 ",
"m 4 @ M 3 E m y.S 1 6 S V E Q G l.%.$./.v.E.s.s.>.T.Q.$._.).R./.)./.r.A S r.O.S h.p.J /.XX-.p.E.A J h.@.a.w.Q +.C m.' v A q.~ Q ",
"9 C q 4 9 Z A A Z e ! V V A w.a.s.$.$.d.%.s.l.(.!.#XL.>.Q.).R.).~.W.E.+.t.>.a.a.:.:.p.:.).).V J E.' @.:.:.r.M V V p.q.+.+.V M S ",
"4 3 i 0 1.u M Z 5.1.N C r.$.$.N | r.N v.Q._.&X!.@X~./.^.,X,XoX~._.Q.Y.e.Y.>.d.a.V +.p.Q.a.J u.h.r.1.r.V J j.:.1.q.Y.;.d.( 1 4 J ",
"5 3 4 ,.| f.Z 2.7 1.Q g.1.N  .2.f.Q h.t.d.(.z.!.!.Q.~.Q.#X`.'._.'.W.~.d.w.$.:.T.d.a.| | d.P.W./.S w.d.a.:.Z r.:.J V J r.U Y C C ",
"p 6 C 9 9 Z Q Z T w.f.n 4 Q V | N | $.d./.v.z.l.[.>.oXl.|.'.#X_._.oX`.Q.t.d.r.>.v.r.h.l.>.-.H.T.B.j.S t.%.$.w.r.D q.G F N S ^ J ",
"2 S C C T 0 4 0 1.,.C r Z T { S j.g.a.d.v.>.#X2XL.#X<X_.^.:X/.,X/.d.Q.Q.l.$.j.r.E.=.%./.j./.j./.T.W./ r.J J d.E.K o.K.-.:.J 4 Y ",
"Q 6 9 6 Y e 5 S S N ! Z N Z ,.t.$.f.| %.t./.>.K.>./.Q.d.%.^._._./.d.d./.%.t.j.f.E./.t.%.O.r.@.F /.r.h.f.| V A N H A v V J Z 4 Z ",
"% 1 2 4 1.T Z 3.9 N Q N Z ,.1.+.o.h.r.:.t.d.Q.>.%X_.s.|.(.:X<X+.).s.%Xv.x.v./.|._.d.[.d.Q.Y.a.:.r.1.Z r..XS M Q V h.h.J M C v N ",
"5 q n T C r.7 1 $.g.r.d.| Q v.r.| /.] g.x.l.$.r.%X.Xt.:X(.<XQ.{.|.oXd.d.l.v.l.v.)./././.o.l.Q.v.o.J h.].q.j.C ( Z V O.J M Q S 1 ",
"9 % C A M S 3.,.,.+.V r./.| S t.[.Q.r.j.| t.$.v.`.1.(._.3XwX<X2X_.~.<X_.%Xt.v.0XE.!.>.[.t.Y.%.j.+.v.j.a.$.d.}.w.Z V $.F G M 9 Y ",
"1 0 ! S g.4 S 1.| C g.d./.t.h.Q.Q.s.v.v.t.1.w.d.Q./.:X:X:X,X)./.L.!.<X-X[.-X<X:Xj._.#Xd.] d.>.t.%.V %.[ %.$.v.j.e 9 M B V C T 9 ",
"q Z 9 Z 5.| e f. .Z | [ %.$.Y.a.d.|.:.v.(.b.w./.w.l.[._.Q.Q._.v./.<X3X|.o.wX2X/.:X|.(.(.d.k.l.[ b.| o.!.Q.Q.[ V 1.A Z N N C T v ",
"r C e M Z 3.Z C r Z { d.$.t.W.o.t.T./.v././.r.r.b.t.v.(.:X(.C.(.0X|./.|._.!.:X,X^.t.v.%.Q.v.B.l.$.v.:.s.K.>.).$.$.$.d.Q T Z C C ",
"C 4 3.Q S 5.n.e 7 r | >.d.2.2.Q x.1.%.v.B.1.(.j.1.d._.(.[.(.(.%Xv.].|.E.%X[.|.E.|.d.[.t.t..X_.Q.(.t.x.l.I.S N r.t.[ O.q.w.n 5 9 ",
"@ r e Z N M 6.r g Z 1.N w.Z 6.v.l.x.j.b.V v.[ 1.1.(.(./.Q.v.x.(.8X,X>X[.}.2Xv.8XOXQ.v.[.v.l.%./.Q. .1.[ a.Q.j.$.t._. .O.h.e 3 7 ",
"2 e 3.Z Z Z { 1.t.,.r ,.,.1.g.2.%.]..Xv.t.l.:.v.b.6.| |.[..XB.| Q.qXQ.oX(.[.<X.X].|.:X!.Q.%.Q.B.B.(.%.x.] a.s.1.Q.[ N N S J 4 Z ",
",.0 { Z Z 5.5.6.V r 8 e S <.2.g.[.d.%.$.v.x.v..XV.t././.{ v.[.g.;XB.Y.).v._.oX/.|.l.v.[.|.a.|._.r.z.v.t. ./.a.t.l.r.a.r.0 | 5.S ",
", % ] | r i 1.%.=.N 2.x.d.k.2.t.Z 1.v.| } g./.v.x._.[.j.t.k.V.C.b.(.t.| |.[.%X(.v..Xj.t.(..X/.(.%.v.w.t.k.V r.%.<.d.d.:.4 r V r.",
"@ q r 2.p 2 | %.r.g.[.l.| r.| g.t.5.5. .x.t.b.B.l.v.t.].$Xk.*X;X!.].%X%X).]. X[.g.v.z.s.>.r.g.6.x.x.t.t.v.g.$.z.b.[ h.V | r M t.",
"3.e g 7 Z Z ] %.2.N g.S  .<.g.] g.0.6.0.V.k.k.g.k.2.g.[.[.b.[.x.v.-X|.}.B.*X1XB.v.t.[.g.B.w.t.6.V.1.Z t.j.g. .L.t. .d.| g.S <.[ ",
"} r 6.7 g r T ,.g.N 0 W Z r <.t.5.e $X2.<.k.l.Q.c.[.*X3.2.z.x.b.v.d.d.{.oX:X%X1XB.M.B.x.B.g.x.x.2.%.[.Q 1.2.z.t.t.S { t.r.j.%.k.",
"4 Z M 1.{ Z 5.T 5.5.1.Z M ,.1.1.(.t.g.1.b.k.$XV.6.2.$X=X5XM.z.v.z.+Xt.[.(.(.v.v.k.l g.6.g.g.5. .3.{ j.%./.] d.t.| g.g.1.V V l.d.",
"9 r N r { N 7 { N N g.{ r 5.N ,.} x.]./.t.b.9Xx.b.B.D.V.c.N.V.| x.d.+X>X;Xv.[.t.k.6.6.B.x.5.x.b.6.N S S Q g.N k.x.1.T Z 5.0 g ,.",
"q 2 7 r 0 r } 2.0 t.N { { ,.<. .j.x.g.<.1.x.k.[.b.%XF.x.V.x.| M.V.x.B.b.X.A.b.*XM.B.C.b.[.e V.V.6.6.1.S 1.Z 1.v.k.t.9 Z C N g.N ",
"% r 7 g 7 0 z.%.| g.6.0 T r 1.2.$.j.,.x.N.2.].j.k.6.C.M.V.z.t.g.1.x.x.x.x.$X=Xc.6.N T t.].Z t.g.5.Q T | S | ,.5.r.Z S 9 0 C Z Z ",
"7 7 e e 7 0 <.N 5.Z 1.Z 0 T ,.2.<.<.r.d.v.z.v.b.V.6XC.0.b.$Xb.g.g.x.Z.b.<.g.;X&XC.n.6.g.B.6.5.5.g.w.6.S | j.r T T e T e e Z T r ",
"7 r r 3.7 r N ,.} 0 N { { r <.1.,.6.x.| | -X%X%X(.t.[.x.x.<.e 6.M.8.=XX.k.[.V.8.V.F.M.B.g.v.n.t.j.b.g.r 5.Q | 1.5.e 2 3.r 9 ,.N ",
"7 r % 7 r ,.0 { r | 1.1.Z N 0 1.} x.c.x.} x.l.K.t.|.-X2.2.,. Xb.b.b.d.*X$XD.b.F.x.V.V.b.$Xg.g.N /.] g.,.,.r.g.g.S Z T 0 1.Q S Z ",
"q q w 8 8 e r e 9 4.1. .| ,.1.,.} D.k.t.g.g.1.6.V v.(.%.v.b.t.%.| r.l..XS.S.Z.z.z.$XM.t.b.V. Xv.j.,.2.{ | 1.C 6.6.Z Z 9 r r T 9 ",
"7 0 N e g { ] r <.%.1.Z g 6.] p { M.x.2.(.t.k.g.| r.j.| s.l.b.6.t.v.| 2. X$Xv.k.z.2.].B.k.x.x.z.M.} ,.l u ,.e r 1.1.S S T N { t.",
"e T r 7 r N e ,.e 8 r ,.Z 1.t.N  .M.N 2.k.1.M.] 1.S g.| l./.t.b.j. .l.v.x.0.2.c.c.N.V.t.v.,.6.t.f. .2.e ,.,.0 r.N S e S r.9 6.2.",
"q 7 7 0 0 r 8 { ,.T Q q u x.l 3.r 2.2.t.1.%.v.2.N B.x.+.(.t.t.6.V. .x.V.2.0.M.<.N.c.D.%Xv.x.1.].,.,.N ] | Z ,.Q r 7 e Z T 7 r r ",
"- q w q e 6.N N ,.r 8 g r r 4.{ Z $.B.x.1.l.| 5.| <.w.t.2.%.t.x.M.4Xk.B.2.V.x.z.*Xx.j.b.k.6.1.0 <.5.4.,.g.5.r g e 5.| 1.1.T { 1.",
"e u q % r p 9 2.w r e 2 } 4.} $.r.r.6.] ,.N M S 1.1.S t.t.D.[ V.V.x.| 2.b.t.,.b.x.1.<.$Xb.2.{ 2.<.r 6.Z N r 3.N ] 5.,.N  .6.4.7 ",
"@ , w 7 l { 7 0 Z 1.,.2.{ 4.2.<.B | 1.<.x.| Q f.1.t.1.r.x.b.2.k.b.v.[.%.b.Z g.M.g.2.x. .2.r ,.g.Z N ] v.g.9 Z 1.,.T 6.e 0 r r , ",
"u % 8 p r r r r } d 4.-X| p e r.t.2.] p 4.{ N 2.2.1.t.N x.<.8.v.b.+Xb.v.v.,.Z 6.C.6.} x.x.T 5.S $.| r.,.N ,.Z N r 1.N 0 ,.- 8 f ",
"7 - , q - r <.] ,.5.| g.g.Z r X.z.2.0 Z | T g 2.x.6.j.g.t.<.k./.2.<.b.2.1.t.3.g.1.Z 6.0.} 7 0 1.2.k.| C i p g l N ,.p p e q j y ",
"q % , % ,.6. .2.V $. .x.d.J ,.{  .2.l.1.r  .2.l.j.f.1.g ,.2.0.,. .f.1.1.t.j.B.1.1.1.x.,.r t.<.0 Z 2.5.u q r g Z 4.1 | T r q u f ",
"2 r q e 4 ,.Z Z r ,.] %.r ,.f r d x.] 1.2.2.1.| x.r.2.2.<.2.k.<.t.N j.k.] | B.{ 1.6.g ,.4.6.] g { r <.q q q 2 N 2.,.} g 4.p w f ",
"% p e u e 7 T p q  ... .{ 6.r g 7 2.2.k.] ,.[.g.{ | w.6.4.k.r.<.2.x.S 1.g.S 5.6.x.p r 2.e 7 <.4.e 5.8 p u e T 4.; z g 8 ] r f , ",
"2 q 8 q 8 r e <.r g } ; z T 7 s 4.] f 2.] N k.x.<.0 6.,.0.5.| 0 { { 1.6.| 1.S e Z N Z 5.1.N 5.2.,.T 5.p u u - j g r 3.u h ; < , ",
", , * j 8 ,.4.8 N z w 8 T q j - w f 2.c.8. . .6.N 3.r } 1.6.8 x.5.0 { 1.Z | Z 1.Z r.5.Z 9 e Z N g.r e 9 q q , w T w 9.l ] 4.j + ",
"@ & # : w 7 8 e , f ] N ,.4.0 r d w d 8.c. .r ] Z <.l { Z <.g 1.5.7 g 1.,.0 Z | 5.e Z <.p T { r 0 w 5.4.7 2 7 q Z 8 8 w 8 j < + ",
"q , : u - # l w y Z 0 w f 1.e l 6.x.<.d 8. .r r 9 l w 0 5.0.l T 6.,.<.Z r 3.r e N ,.6.0 r r ,.r q q p 7 p p p & q x 0 g g j c j ",
"< < : > > u * - N x * r N 0 ] } } ] 9.<.{ Z ] q 9 r 6.,.7.8 r r Z } 0 1.r l w q 1.r.Z e r.T 0 Z q i q q p 8 T u l w 7.z f ; f z ",
"w w q , g ; = w z f q u w = w <.1.r 7.{ d ] 8 q e ,.6.r T ,.,.4.| ,.,.0 N Z ,.r l e r - Z w 8 , r - q q 3.2 r u 7 l 4.a a ; z < ",
"> , # , 8 ; w 7 - s # < - e r r 0 p l l e 0 q <.<.7 Z 9 Z r ,.r 6.6.{ 6.1.6.6.{ ,.C N <.g i p q T q q 5 q 3.r p w g f s l 9.a q ",
"O = - q # : 8 , < < f w f g f q q r z 8 q T g N e g ,.{ Z 6.<.0 l - w g r q 8 Z Q 0 ,.p 2 w r p e 3.q & % w 8 q - 7 g ; - z a j ",
"o   , q * u f a 8 e <.q p g u 2 f % 8 w 0  .0 7 - r ,.] 2.{ p u r u < w 7 p T Z | N 0 5.r p - r T T p q u , % & w 7 z z ; < j ; ",
"X > - q # o - O - p 8 s z r , ; y j l g , , , 8 8 l e ,.Z r 9 Z r x w 8 r Z Y Z t.N ,.e r T e 9 0 r % q p , u i q w f z f f c j ",
"+ > # - # - - ; w - # ,.7 % 8 e 8 8 , X , u f q q w g { { Z Z Y 8 < l w { 7 2 Z 1.9 0 q e q T C Y T T q , x u q w q r ; r z k = ",
"  # y : # , : q w 8 = % @ = q q f 7 r r , , = 0 8 7 % r 7 ,.r 1.r x - r r i q 7 7 7 8 T e T e e 9 r Z e q u w & l 9 ,.w e w j j ",
"& q > X % * y = $ , % X < T @ w < @ q l , # < % r r 7 - f ,.0 Z l w < e r u q 8 e T Y 7 r 5 C p p e 1 T q , - , e r g r e 4.f ; "
};
