/* XPM */
static char *dbc4104060f34d5984cca6865fb1b0b6GfAjtuEATZN4owbr[] = {
/* columns rows colors chars-per-pixel */
"64 64 200 2 ",
"   c #3E261C",
".  c #3B281A",
"X  c #422C1D",
"o  c #492D1F",
"O  c #47311C",
"+  c #48311F",
"@  c #442721",
"#  c #442D22",
"$  c #492D21",
"%  c #462F29",
"&  c #482F28",
"*  c #463425",
"=  c #4A3325",
"-  c #4F3927",
";  c #463428",
":  c #4D352A",
">  c #4D3A2B",
",  c #503625",
"<  c #523827",
"1  c #52362D",
"2  c #523C2D",
"3  c #593D2F",
"4  c #4F3631",
"5  c #4F3A32",
"6  c #503630",
"7  c #543D32",
"8  c #593D33",
"9  c #553D39",
"0  c #5B3E39",
"q  c #53412F",
"w  c #59432E",
"e  c #564233",
"r  c #5B4335",
"t  c #5C4A36",
"y  c #5C443A",
"u  c #5D4B3B",
"i  c #634837",
"p  c #61453A",
"a  c #634B3D",
"s  c #684D3F",
"d  c #685334",
"f  c #66513C",
"g  c #6A533E",
"h  c #6E593C",
"j  c #5F4840",
"k  c #654D42",
"l  c #6A4D43",
"z  c #655242",
"x  c #6B5345",
"c  c #6D5945",
"v  c #66524A",
"b  c #6D544A",
"n  c #6E5A4A",
"m  c #715646",
"M  c #735A46",
"N  c #795F45",
"B  c #71554A",
"V  c #745B4C",
"C  c #795E4C",
"Z  c #6C5450",
"A  c #6E5A51",
"S  c #735651",
"D  c #755C51",
"F  c #795E52",
"G  c #745C58",
"H  c #6F604D",
"J  c #716046",
"K  c #7B6247",
"L  c #75614D",
"P  c #7B634D",
"I  c #7D6A4F",
"U  c #756252",
"Y  c #7C6354",
"T  c #756855",
"R  c #7D6A55",
"E  c #776459",
"W  c #7D6559",
"Q  c #7E6A5A",
"!  c #81674E",
"~  c #816C4F",
"^  c #816655",
"/  c #826B56",
"(  c #81665A",
")  c #836C5A",
"_  c #816C5B",
"`  c #846D5B",
"'  c #856B5C",
"]  c #866A5C",
"[  c #826D5C",
"{  c #836E5D",
"}  c #846D5D",
"|  c #876D5D",
" . c #856E5C",
".. c #866F5D",
"X. c #876D5E",
"o. c #846F5E",
"O. c #836C5B",
"+. c #886E5F",
"@. c #886E5D",
"#. c #896D5D",
"$. c #847255",
"%. c #887457",
"&. c #83705F",
"*. c #85705F",
"=. c #87705E",
"-. c #87725F",
";. c #85705D",
":. c #85725C",
">. c #8A715F",
",. c #89745D",
"<. c #8B7A5E",
"1. c #917D5F",
"2. c #826760",
"3. c #876D60",
"4. c #846D62",
"5. c #896F60",
"6. c #896F62",
"7. c #877060",
"8. c #867261",
"9. c #867262",
"0. c #887161",
"q. c #8B7161",
"w. c #897360",
"e. c #8B7162",
"r. c #897262",
"t. c #8A7362",
"y. c #8C7261",
"u. c #897463",
"i. c #897562",
"p. c #8C7563",
"a. c #8E7463",
"s. c #8D7366",
"d. c #8B7464",
"f. c #8D7664",
"g. c #8E7666",
"h. c #8A7464",
"j. c #8D7B67",
"k. c #8D7A64",
"l. c #877269",
"z. c #8C7569",
"x. c #8F7868",
"c. c #8E7B6A",
"v. c #907665",
"b. c #907667",
"n. c #917766",
"m. c #917D64",
"M. c #907669",
"N. c #927769",
"B. c #927869",
"V. c #927A69",
"C. c #957B6B",
"Z. c #977C6B",
"A. c #957D6D",
"S. c #927C6C",
"D. c #997F6E",
"F. c #8F7F72",
"G. c #957D71",
"H. c #987D74",
"J. c #8E816E",
"K. c #938265",
"L. c #988465",
"P. c #988867",
"I. c #95836B",
"U. c #99856C",
"Y. c #9B8A6D",
"T. c #968372",
"R. c #9A8071",
"E. c #9E8475",
"W. c #998574",
"Q. c #9C8A74",
"!. c #9B867A",
"~. c #9D8B7A",
"^. c #9F9071",
"/. c #A18E75",
"(. c #A28879",
"). c #A3897A",
"_. c #A28D7C",
"`. c #A29177",
"'. c #A4927D",
"]. c #A8947E",
"[. c #A58F84",
"{. c #A59383",
"}. c #AA9584",
"|. c #AB9A85",
" X c #AB9689",
".X c #AE9B8A",
"XX c #B29D87",
"oX c #B2978E",
"OX c #B19C8D",
"+X c #B29D90",
"@X c #AEA28A",
"#X c #B5A18F",
"$X c #B5A492",
"%X c #B8A797",
"&X c #B7A891",
"*X c #BBA897",
"=X c #BCAF99",
"-X c #C0B49E",
";X c #C5B6A3",
":X c #C9BCA9",
/* pixels */
"^ Y C C ^ / C m Y / Y L T R Q -.( 0 S B ! ! K N N ! 3 3 S p S S ! 0 ! 0 @ l ^ ( ( ( e.f.5.....] ( Q [ 7.7.h.7...( ( ( V s ).] F ",
"V P ^ C V C C C ..a.) L P U R w.( 0 S ! m ! K N m ! 3 3 S p l l l p B 8 @ l ^ ^ @.A.C.@.[ W R ] ) ) ;.;.7.e.7.4.] ..4.V i G.( ^ ",
"V Y ^ C V V Y R R ....Y Y L L Q ( 1 B S ! ! N N ! ^ 3 0 S l l l l l B 1 $ l S ^ C.E.k.Q ....R 4.[ [ [ 8.7.7.7.[ | ..5.m 8 M.^ ^ ",
"^ ^ ^ Y C ^ ^ R C Q R Y Y L Y Q 2.1 l ! ! ! N N s ! 3 0 ^ S l S l S l 8 0 p ^ 6.).V.( ( 7.d...R [ [ Q 8.e.i.7.7.] ....m 3 6.M C ",
"| | R R ( ..) R >.>.^ ^ ) :.@.v.( 1 B ! ! ! h N ! ! 1 0 ! p l l l ! 0 8 0 p ^ N.(.R W f...[ >.L [ Q Q 8.w.i.i.e.) ( ] x 8 5.m m ",
"L R w.-.| ) | ..i.a.#.v.C.v.| @.^ 1 B ! m N ! ! ! S 1 0 ^ l l l ! l 0 0 p p ^ ] ( m ( Z.( R a.-.;.;.:.Q w.l.l.w.[ R ( V i v.m x ",
"a T <.j.i.-.>.a.y.v.N.C.Z.#.Y ^ S 1 B ! ! N ! m ! ^ 1 0 S l S ^ l l p l p l ( ! z Y e.c.h.7.i.V.l.8.Q 8.8.8.;.w...Q ( V p B.V m ",
"t c ;.j.S.I.S.k.D.Z.#./ ^ ^ ^ 6.l 1 B m m m ! ! S ^ 6 0 ( l l l B S l l 0 l ( 0 V W.A.4.I.c.Q 7.j.w.l.:.;.;.Q Q ..Q O.C a B.V F ",
"L e n I.k.I._.V.Y P V M m C P ( p 1 S B ! ! N B B S 6 0 F C l B ! l 0 l a B Y v W E.W.k.T.j.R i.8.i.8.Q j.8.L R W Q ..V a 7.Y V ",
"c f Q `.W.V.a.L x m V C C C C C l 1 S M N N ! m B S 0 p F S B C l ^ l S y U d.V R G.A...j.c.h.I.9.l.8.8.j.7.R Q V Y ..C x z.T V ",
"H c P -.^ V m x M V V M M V C ^ l 1 C B B C B B B F 0 p S S B M B B l S 2 V 9.V V c._._.!.W.I.j.J.j.8.j.!.z.v q L T 7.T V A...Y ",
"Y c g a f a c Y Y P V m m V C ( l 1 C M C N m m l S 0 0 F S m B ( S ^ S 7 V d.W c L S.!.j.i.c.J.T.Q.W.j.T n n T ;.[ h.Y b V.[ Y ",
"Y V g g V M V / V V V V V V L R l 3 S M N m l l l S 0 p F F S C S ( W B 7 W S.4.V x Q ~.Q.W.Q.Q.c.Q H H Q j.j.8.h.j.V.T x j.R U ",
"P V x M Y ^ C Y V M c c M C Q 7.B 8 ^ B B s s l l S 0 0 G F F C S 6.4.a 2 V.!.z.[ z n S.Q.T.i.T H H Q l.l.j.T.j.S.A.!...n j.Q R ",
"] P M C Y ^ Y C T P c x V T i.I.l 8 F C ! s l B S S 0 0 F ( Y Y ( M.2.a y S.S.S.w.c q u z n c j I.9.9.9.Q c.I.l.c.W.~...V S.d.f.",
"v.] ^ ] @.5.@.^ Y R R Q ) 7.c.S.l 1 S C ! C B ( 2.2.0 0 G ] ( W 2.( l 7 e V z [ j.l.R U U Q Q Q v H J.9.x z T Q c.c.S.Y z c.S.!.",
"M V C V c V W O.E l.W b b W Y a 7 7 e e 7 2 e r e z y e y y e y e q q q q q t f 2 t * u y y k 2 f y k n x 7 : 2 : u k a y x D Y ",
"O O + X X X # #   % % .     X ; . . * > > > > > X * ; 5 z v u e e e t u t t t t - 2 2 y > 4   & > * = > 7 : = # X : : : = : : : ",
",.,.a.k.l.4.4.2.Q Q j 5 u k b 2.{.'.{.{.{.{.[.~..X{..X@X@X.X{.I.~.~.{.'.'.'.'.'.`.W._.z.W W 2 4.G.6.W W 2.d.6.O.5.6.4.4.d.6.4.4.",
"Z.I.I.W.E.!.!.T.[.!.A j 9..X.X+X.X|.~.Q.Q.Q.W.W.~.W.'.'.Q.Q.{.~.~.^.^.^.^.`.'.].XX]..XI.l.D = 4.z.O.n b V E W W 4.W W O.4.4.d.z.",
"Q Q Q Q 4.l.l.c.l.Q e ; l. X!.S.k.<.R R R Q :.Q R L $.:.:.i.~.^.Q.P.J.K.P.K.W.Q.I./././._.V = D D k y z b x v D V n n D D V F W ",
"Q Q Q Q Q Q l.l.[.Q e j Q 9.T Q T R R Q <.<.<.<.J.<.k.K.j.J.P.I.J.K.K.K.P.Y.Y.Y.m.Y.U.U.].c 2 x v y a D F v l n v D W W G W E O.",
"Q 9.Q Q Q Q Q l.F.A e e n T T h.I R <.<.k.<.<.:.i.k.<.<.K.<.<.<.K.K.K.K.P.P.L.L.Y./.U.L./.M t V x a k b V x k k x D Y S S D W W ",
"H T T Q Q E E T Q E z u v H T J I K.<.<.$.$.<.K.<.P.K.K.<.I I k.P.P.P.K.P.L.L.K.K.m.Y.Z./.J r V l a y y a k k x b V x u y x B b ",
"* * * * ; > : ; > 5 > t h.T.h.i.K.K.<.<.k.<.K.k.P.K.k.K.<.-.<.K.^.^.K.K.K.K.P.P.K.P.L.K./.P = t : : # @ $ : : : # = : 7 : : : 2 ",
"T H H J b b v b z v > > T c.j.c.K.K.K.K.K.K.K.K.k.P.Y.Y.K.K.K.^.K.<.$.I $.<.<.<.L.L.K.L.W.c X s Y D U Y W W W E D D V V b n V D ",
"c.c.Q l.l.l.l.l.H.c.v e Y S.V.v.<.K.K.K.K.P.I.P.P.I.I.Y.^.^.Q.I.<.<.$.K.K.<.<.$.I.C.m.I.U.c 2 O.T.H.G.G.S.N.S.z.S.c.z.z.z.z.z.z.",
"U A U H D D D S D D 7 * c V.a.,.J.K.I.J.Q.Q.Q.Q.Q.K.K.I.~.`.P.K.J.K.K.P.P.<.<.$.<.,.,.a.V.V u 5.z.4.O.D B b n S B S D D F Y F D ",
"W W ( ( 2.G G F S D 8 , C G.D.U.J.K.W.P.W.I.I.S.i.j.J.K.j.k.I.I.Q.J.J.^.P.J.<.j.v.m.k.d.9.n 0 V 4.2.Y S b x b n b S F W E Y Y E ",
"W ( ( ( 2.2.( F W W r $ x @.,.C.`.Q.~.Q.Q.I.I.I.I.W.Q.W.W.Q.~.~.^.|.^.'.^.^.~.^.'.{.|._.T.W k Z D V D V S B n b D Y E U D D E ( ",
"V F V F F F F F B D y 3 M ] / ,.W.W.T.I.T.J.c.J.J.j.i.i.J.W.W.j.J.J.J.Q K.Q J.J.I.T.!.G.l.G k W W E U W W W W F U Y D D V S F Y ",
"8 1 1 , , & 6 & 1 r : $ p i < 3 2 - - q q q e e > > e - - q q q e e q q ; * q q y 5 t u y : 9 O.k u r e e t y e e e e t y y r 7 ",
"b 7 e V W Q Q L ;.[ Q [ ( E b l U R ( D m G 7 > e y u u f z f c u t u c z u u u > e j q v n u u z * t H H T T H H H J f z z H J ",
"!.n H [.OX].{.OX|.|.{._.Q.T.!.!.4.f.T._. X_.u 7 F.J.T.!.~.~.'.'.~.^.{.^.|.{.{.@Xl.W.$X.X%X|.{.$XQ.T H J.;X:X#X=X=X=X&X@X@X@X@X{.",
"j.e 7 7.S.[ R i.h.j.7.Q D D F ( S.4.Y 4.G.N.y A 9.l.l.i.i.i.j.j.Q Q K.K.J.Q Q J.j H T.W.!.Q J.Q.$XH H J..X{.^.~.Q.Q.I.J.<.<.R T ",
"A 7 r U -.7.>.| / ) ..Q D n B F D Y V D l.( 5 Y S.S.J.c.j.9.:.:.K.Q R Q Q Q Q Q u v 9.w.c.Q Q J.~.u T Q.Q T w.J.j.j.9.R T T I T ",
"a 7 p V F ( #.P R R ( R S S B B x D B D 4.4.9 D z.z.z.j.<.<.-.<.<.<.,.%.Q Q T T i c i.) i.i.,.| H u x Q U v c w.I.j.,.R I T I T ",
"b r a W ^ S ^ C ] ^ ^ W ^ ^ S ^ V D k k D ( 9 x 9.d.i.i.,.<.<.<.%.,.,.,.Q Q Q R 2 g I.-.>.<.i./ j.z V 7.) T L V V.p.:.R T I I P ",
"l < 0 C ^ F ^ ^ ^ ^ F F ^ S ! S S b b B D F 9 k f.i.a.i.,.%.%.%.%.%.<.%.,.:.<.:.w g C.,.,.,.v.,.c.2 c V.V Y :.g -.-./ P L P L L ",
"B 0 p V C ^ ^ C m C ^ ^ ^ S l l D b B S l v y Y S.S.S.m.v.1.1.1.1.m.v.%.$.:.:.$.g f ,.,.,.:.1.,.i.z R V.) V V ) ( / / T P Y I P ",
"B 8 l S ! S ! B C B C ^ ^ S B B S S S B B B k l W V.Q.U.K.U.P.K.L.L.1.%./ ,.,.>.i g $.,.%.@./ m.v.s X.5.^ F / ] | Y ^ / ^ K C C ",
"S 8 l C B ^ ! B C C B C B l B S B B F S D l 0 p k P >.V.U.U.L.1.d K %.%.%.:.,./ w M m.p./ / %.C.y.a ] X.Y Y ^ ..| / ^ P M m M I ",
"C 8 s F S ! B B N C F F S S S S F B B B F l 8 x Y C V L I I h h K / %.,.%.,.k.i.f P :.P I I.Y.Q.v.l @.5.Y C ^ ] | / Y V m N C P ",
"^ 0 l C ! ! ! m m C F M B ! ^ ! F M l F ( l 8 V A.@./ / / ^ ~ ~ K.%.I K T <.i.8.t M -.-.m.'.U.-.Z.x 5.@.F V ^ ^ / ^ N M ^ #./ M ",
"( p l F S ^ B l C V m x B C F ^ B B C ] B.B , l ] R Y :.%./ / / ~ I L I R K.j.<.c T T.P.T.I.K.K.V.a ] ( D V Y ^ / ^ C P / ,./ M ",
"F p l F ^ S ! B m m C ^ F F D F C ^ ^ ^ v.s $ l N.d.@.e.,.,.,.1.<.<.<.:.:.R 9.j.f t c c H T T k.| w C Y V C ^ ^ ^ ] / I P Y P ! ",
"F 0 l F S ^ ! B m C X.v.3.S B C ^ #.^ ! ^ p $ V e.] ^ Y / ,.p.K.K.I.K.:.R T k.J.u u T i.I.P.j.i.) 2 n C C U / R / ( | ) I V C Y ",
"S 0 l ^ ^ ^ ^ ^ Y C ( ( C a l ] ! #.#.^ #.s $ M E.E.A.C.A.Z.S.i.c.j.j.J.I.W.~.~.u n j.T.W.I.j.J.) 1 x Y Y R / R ( / / | ,.^ P P ",
"2.8 l 4.F ( ( ( ( ( V s i N / ] ] ] ] ^ ^ 0 1 S 2.( S l S Y D n G v b b v v Z n u z 7.W.j.i.K.k.| < x P :.P L :.:.$.:.:.@.^ Y ^ ",
"F 0 V 2.2.G.6.V ( M a m ^ @./ P ! ^ #.#.( p @ p 6 6 6 6 2 7 e 9 4 4 5 9 : : 9 5 9 a ;.I.<.<.K.p./ 3 m Y / ) R :.R R -.i.>.^ F ^ ",
"k k 6.G.5.N.z.F m x M ^ @.^ ^ / #.#.] ^ ^ p o l H.H.H.N.S.G.D.I.H.S.z.N.G.H.c.W > f ;.j.<.:.<.<.Y 3 C Y / :.<.:.<.:.:.-.( ^ C F ",
"( 0 l ( M.G.( l m F ] @.! K ^ N.#.^ ! C B p 3 ^ N.N.l.6...-...:.d.O.W O.d.c.8.x q x -.K.<.%.<.<.^ 3 C ^ ) -.k.k.k.<.P J C C C ^ ",
"F 6 1 y B W V m ^ ^ ^ ^ ] ,.,./ M N C C ! i , M F B g h g M h M g M P L c m Y Y q M ,.m.<.$.<.k.| < m ..-.-.k.K.1./ c c m Y Y F ",
"0 6 0 2 1 l W ] ( ] Y Y @.C.v.P M V C ! ^ a $ g ( C c x J P P P ) I I L c M R ,.- c :.p.K.k.K.I.>.: V a.f.,.p.,.P J x c P W W F ",
"D 0 1 8 V d.4.W W ( ) ......^ ^ ( ^ ^ Y ^ p = c @.^ P P I P I / ,.N g g c c U L > n :.i.I.I.J.W.| = V z.k.V.p.P M M V L Q [ ( T ",
"6.k y D z.z.W O.7.R ( 4...^ Y R ( ( ( ( ( l = z X.( R / / / / ,.P g g M V V D Y 2 D 7.k.T.I.c.T.T : Y k.S.I.p.c c J Y R R ) ( ( ",
"Y 2 2 ] _.S.D Y -.n ..Y n ( U ..E G z.2.2.j # W d.W h.D [ S.e.b c f D R D Y E S 4 D z.F.H.T.F.J.4.: T T.S.].g g R ) R Y ) 4.Q 4.",
"W r 7 T H.z.4.6.Y W Q ( ....b k j j j v l.k * W _.4.S.c.H.O.V F ] R U b x G 4.l.9 G z.F.!.[.!.[.7.y T 4.k.-.i J L R R j.S.S.z.Q ",
"U y 7 b Q W R O.Y 4.R Q [ D V x j A j Z l.b 9 z.6.W 4.2.l.F B D b x k k v G W E 9 Z G Z Z A v j a z j.Q Q e 2 / M L x L E U Q n ",
"e : = 7 t e 2 7 e 2 2 y 7 2 t u j v y y 0 4 * j # : :   y 0 0 0 : : : : 5 4 4 % % 5 7 9 5 5 4 ; ; * e w e = = e = w 2 e 5 X > . ",
"-.-.[ [ [ [ Q E D   u W U [ Y S j ; u T Q Q -.) c...k r ( b k S W Y n B 0 % 9 k v v S S A H H n T n n n y L ..Y 7.k.E n t v l.Q ",
"OX#XOX.X}..XOX.XT.k S.{.~.}.[.{.Q q T.=X#X].XX|._.OXd.Y  X+XoXoXH.W.G.G.S k H. X{.{.}.[.~.{.{.^.!.[. X[.Y I.].(.E.T.J.n u Q @X=X",
"e.7.-.) 7.h.h.h.V n 4.9.Q 4.h.{.J.t |.^.-.J J P ,.].Y - W ( Y b x n V R y k !.!.Q Q 8.:.Q Q j.T Q T Q Q T f.R V Y Y J.T v J.[.Q ",
"Y Y Y T Q [ [ Q z 7.Q W d.4.9.Q.J.t Y.t f J J P h %.t = Y l a F C z a x 7 b _.U Q T Q <.R R Q T Q T l.T z.e.R k.-.L Q u j J.[.Q "
};
