/* XPM */
static char *f5e33daadb18479c9453f02e2da5c3e9w5rytIgKS8FniHQ9[] = {
/* columns rows colors chars-per-pixel */
"64 64 156 2 ",
"   c None",
".  c #5D2513",
"X  c #5A2D12",
"o  c #602714",
"O  c #662A15",
"+  c #6D2E17",
"@  c #6F2F18",
"#  c #6E3317",
"$  c #6E3E17",
"%  c #733219",
"&  c #7B361B",
"*  c #7F381C",
"=  c #3E6E05",
"-  c #3C7004",
";  c #367F01",
":  c #3D7C04",
">  c #6D5C14",
",  c #7D5319",
"<  c #7B5E1B",
"1  c #426B06",
"2  c #59680D",
"3  c #477307",
"4  c #527D0B",
"5  c #7C6F1C",
"6  c #677413",
"7  c #833B1D",
"8  c #883E1E",
"9  c #8C401F",
"0  c #844D1C",
"q  c #8A491E",
"w  c #81531C",
"e  c #8A541E",
"r  c #8A631F",
"t  c #81751B",
"y  c #827B1C",
"u  c #8F4120",
"i  c #934421",
"p  c #984723",
"a  c #9D4A24",
"s  c #A14D26",
"d  c #AD552A",
"f  c #B0572C",
"g  c #B75A2E",
"h  c #B85C2F",
"j  c #BC5F30",
"k  c #BD6030",
"l  c #C46433",
"z  c #C96735",
"x  c #CB6935",
"c  c #D06B37",
"v  c #D36E38",
"b  c #CE7637",
"n  c #DE753D",
"m  c #E0773D",
"M  c #E3783E",
"N  c #2F8300",
"B  c #338100",
"V  c #4D980A",
"C  c #559E0E",
"Z  c #559C11",
"A  c #599F12",
"S  c #628913",
"D  c #738218",
"F  c #639217",
"G  c #619911",
"H  c #57A00E",
"J  c #5BA40F",
"K  c #5DA412",
"L  c #62A615",
"P  c #64AB13",
"I  c #69AF14",
"U  c #63A718",
"Y  c #6FA41C",
"T  c #65A918",
"R  c #6AAD1A",
"E  c #6CB315",
"W  c #6EB11A",
"Q  c #71B616",
"!  c #73B917",
"~  c #73B51D",
"^  c #7CB71A",
"/  c #76BA1A",
"(  c #79BE1A",
")  c #76B620",
"_  c #76B921",
"`  c #7BBB21",
"'  c #7DC11B",
"]  c #7FC122",
"[  c #82C51C",
"{  c #86C91D",
"}  c #8ACD1E",
"|  c #8ED01F",
" . c #84C522",
".. c #87C821",
"X. c #8BCC22",
"o. c #8DCD2B",
"O. c #8FD121",
"+. c #93D521",
"@. c #97D824",
"#. c #99DA26",
"$. c #94D32E",
"%. c #9DDC2A",
"&. c #91CF30",
"*. c #93D231",
"=. c #99D734",
"-. c #9DDB33",
";. c #A0DF2B",
":. c #A1DE35",
">. c #A4DF38",
",. c #A3E12D",
"<. c #A5E236",
"1. c #A9E632",
"2. c #AEEB36",
"3. c #ACE935",
"4. c #A5E139",
"5. c #A6E13A",
"6. c #AAE53A",
"7. c #ABE838",
"8. c #ADE93A",
"9. c #B0EC37",
"0. c #B0EB3A",
"q. c #B2EE39",
"w. c #B1ED38",
"e. c #B2ED3E",
"r. c #B1EC3C",
"t. c #B6EF3F",
"y. c #B2EC3B",
"u. c #B5F03B",
"i. c #B6F13C",
"p. c #B6F13E",
"a. c #B5F03D",
"s. c #B6F13D",
"d. c #B9F33E",
"f. c #BAF43F",
"g. c #B5EF40",
"h. c #B7F141",
"j. c #B8F241",
"k. c #BBF540",
"l. c #BBF542",
"z. c #BDF742",
"x. c #BFF745",
"c. c #BDF644",
"v. c #BFF943",
"b. c #BFF845",
"n. c #C2FB46",
"m. c #C1FA45",
"M. c #C5FD47",
"N. c #C0F943",
"B. c #C5FD48",
"V. c #C6FE48",
"C. c #C7FF49",
"Z. c #C7FE49",
"A. c #C8FF49",
"S. c #C8FF4A",
"D. c #C9FF4A",
"F. c #CAFF4B",
/* pixels */
"                                                                        .._                                                     ",
"                                                                      ` n.5.  ) 4.o.                                            ",
"                                                             .4.*.    =.S.4._ h.F.r.                                            ",
"                                                            r.S.F.6.o.l.S.x.x.S.F.g.                                            ",
"                                                            <.F.V.F.V.F.V.V.S.S.F.<.T $.<.6.-.'                                 ",
"                                      o.4.                  *.V.V.V.V.M.V.S.M.p.m.h.h.l.1.,.;.@./                               ",
"                              x.-.R *.F.r.o.*.        ] g.h.v.S.F.V.M.F.F.M.7.+.1.F.d.@.+.+.+.+.'                               ",
"                        o.  F.V.m.j.f.N.<.N.v.~       ~ 4.c.n.V.F.v.,.1.m.y.+.+.@.2.#.+.+.+.| ' K                               ",
"                      =.V.V.S.y.%.y.;.N.F.M.%.K     | +.{ X.O.1.y.#.+.+.;.@.+.+.+.+.+.+.+.+.| ' } | } E                         ",
"                      x.V.V.v.%.+.+.+.1.q.$.'  .X... .X.+.{ ! { +.+.+.+.+.+.+.+.+.+.+.+.+.+.+.+.+.+.| E                         ",
"                o.$.&.V.l.;.#.+.+.+.+.+.}  .l.m.g.j.+.' [ ( } ( +.{ / { +.+.+.+.+.+.+.+.+.+.+.+.+.| P V                         ",
"                -.V.l.V.9.+.+.+.+.+.} ' Q 7.u.1.N.3.} E ( +.} ( [ / | / +.+.+.+.+.+.+.+.+.+.+.+.+.{ ! } E                       ",
"                o.,.#.%.#.+.+.+.+.+. .6.:.p.1.+.#.@.| / +.+.{ E ' +.+.' } +.+.+.+.+.+.+.+.+.+.+.+.+.@.| E                       ",
"                ! +.+.+.+.+.+.+.+.+.{ g.,.#.#.+.+.+.+.+.+.+.} [ | +.+.' { +.+.+.+.+.+.+.+.+.+.+.+.+.} P                         ",
"                P #.+.+.+.+.+.+.} [ ( %.#.+.+.+.+.+.+.+.+.+.+.+.+.+.[ J Q { +.+.+.+.+.+.+.+.+.+.+.+.'                           ",
"          K %.3.6.p.@.+.+.+.+.+. .4.6.y.@.+.+.+.+.+.+.+.+.+.+.+.+.+.| [ | ! | +.+.+.+.+.+.+.+.+.+.+.+.} } } /                   ",
"            g.p.,.,.+.+.+.+.+.+.X.8.V.p.+.+.+.+.+.+.+.+.+.+.+.+.+.+.+.+.} / +.+.+.+.+.+.+.+.+.+.+.+.+.+.+.+.+.~                 ",
"            =.p.+.+.+.+.+.+.+.+.| ' +.,.+.+.+.+.+.+.+.+.+.+.+.+.+.+.+.[ / } +.+.+.+.+.+.+.+.+.+.+.+.+.+.+.O...R                 ",
"        E P ~ j.#.+.+.+.+.+.+.+.+.+.| +.+.+.+.+.+.+.+.+.+.+.+.+.+.+.+.| +.+.+.+.+.+.+.+.+.+.+.+.+.+.+.O...` ` P                 ",
"        <.p.p.f.@.+.+.+.+.+.+.+.+.+.+.+.+.+.+.+.+.+.+.+.+.+.+.+.+.+.+.+.+.+.+.+.+.+.+.+.+.+.+.+. .[ ' ~ ~ ) )                   ",
"        $.p.%.#.+.+.+.+.+.+.+.+.+.+.+.+.+.+.+.+.+.+.+.+.+.+.+.+.+.+.+.+.+.+.+.+.+.+.+.+.+.+.+./ ( ' [ [ ( E ~                   ",
"      P W 7.,.+.+.+.+.+.+.+.+.+.+.+.+.+.+.+.+.+.+.+.+.+.+.+.+.+.+.+.+.+.+.+.+.+.+.+.+.+.+.+.} } +.+.+.@.+.( E P                 ",
"  E %.7.2.2.,.+.+.+.+.+.+.+.+.+.+.+.+.+.+.+.+.+.+.+.+.+.+.+.+.+.+.+.+.+.+.+.+.+.+.+.+.+.+.+.+.+.+.+.+.+.+.+.+./                 ",
"  o.1.#.@.+.+.+.+.+.+.+.| +.+.+.+.+.+.+.+.+.+.+.+.+.+.+.+.+.+.+.+.+.+.+.+.+.+.+.+.+.+.+.+.+.+.+.+.+.+.+.+.+.} C P Q             ",
"  ~ @.+.+.+.+.+.+.+.' / ' ! { +.+.+.+.+.+.+.+.+.+.+.+.+.+.+.+.+.+.+.+.+.+.+.+.+.+.+.+.+.+.+.+.+.+.+.+.+.+.+.} / +.[   P P       ",
"    ' +.+.+.{ ' [ { / +.+.+.' | +.+.+.+.+.+.+.+.+.+.+.+.+.+.+.+.+.+.+.+.+.+.+.+.+.+.+.+.+.+.+.+.+.+.+.+.+.+.+.+.+.P E | { P     ",
"      E ! P J { [ E / +.+.+.+.+.+.+.+.+.+.+.+.+.+.+.+.+.{ +.+.| ( } +.+.+.+.+.+.+.+.+.+.+.+.+.+.+.+.+.+.+.+.+.+.+.' | +.+.( K   ",
"        J     [ +.| } +.+.+.+.+.+.+.+.+.+.+.+.+.+.} [ W T { +.( Q / +.+.+.+.+.+.+.+.+.+.+.+.+.+.+.+.+.+.+.+.+.+.+.+.+.+. .` ~ Z ",
"      ! O.{ / } +.+.+.+.+.+.+.+.+.+.+.+.+.+.+.} / Q ~ ~ ) R W ~ ` R [ +.} } +.+.+.+.+.+.+.+.+.+.+.+.+.+.+.+.+.+.+.+.+.X.` ` ` T ",
"      P | +.+.+.+.+.+.+.+.+.+.+.+.+.+.+.+.+.+.+.O. .`  . . . .` ` ) Q ~ ~ ~ | +.+.+.+.+.+.+.+.+.+.+.+.+.+.+.+.+.+.+.| ] ` ` ) K ",
"      C [ +.+.+.+.+.+.+.+.+.+.+.+.+.+.+.+.+.+.+.+.+.+.+.+.+.+.+.O.O.X.X.{ } +.+.+.+.+.+.+.+.+.+.+.+.+.+.+.+.+.+.+.+. .` ` ` T   ",
"P X.| | +.+.+.+.+.+.+.+.+.+.+.+.+.+.+.+.+.+.+.+.+.+.+.+.+.+.+.+.+.+.+.+.+.+.+.+.+.+.+.+.+.+.+.+.+.+.+.+.+.+.+.+.+...` ` ` ) Z   ",
"  [ +.+.+.+.+.+.+.+.+.+.+.+.+.+.+.+.+.+.+.+.+.+.+.+.+.+.+.+.+.+.+.+.+.+.+.+.+.+.+.+.+.+.+.+.+.+.+.+.+.+.+.+.+.+.} ] ` ` ` ` ^ K ",
"    ' } +.+.+.+.+.+.+.+.+.+.+.+.+.+.+.+.+.+.+.+.+.+.+.+.+.+.+.+.+.+.+.+.+.+.+.+.+.+.+.+.+.+.+.+.+.+.+.+.+.+.+.X.] ` ` ` ` ` R Z ",
"    H I [ +.+.+.+.+.+.+.+.+.+.+.+.+.+.+.+.+.+.+.+.+.+.+.+.+.+.+.+.+.+.+.+.+.+.+.+.+.+.+.+.+.+.+.+.+.+.+.+.X. .] ` ` ` ` ` T     ",
"P { | +.+.+.+.+.+.+.+.+.+.+.+.+.+.+.+.+.+.+.+.+.+.+.+.+.+.+.+.+.+.+.+.+.+.+.+.+.+.+.+.+.+.+.+.+.+.O.X. .` ` ` ` ` ^ ` ` ` K     ",
"E +.+.+.+.+.+.+.+.+.+.+.+.+.+.+.+.+.+.+.+.+.+.+.+.+.+.+.+.+.+.+.+.+.O.$.+.O.O.O.o.X.X.X.o..... .] ` ` ` ` ` ` ` ` ` ` ` ` R     ",
"  ' +.+.+.+.+.+.+.+.+.+.+.+.+.+.+.+.+.+.+.+.+.+.+.+.+.+.+.+.+.+.O.X. .] ` ] ` ` ` ` ` ` ` ` ` ` ` ` ` ` ` ` ` ` ` ` W L ` ~     ",
"    P / +.+.+.+.+.+.+.+.+.+.+.+.+.+.+.+.+.+.+.+.+.+.+.+.+.+.+. .` ` ` ` ` ` ` ` ` ` ` ` ` ) ` ` ` ` ` ` Y R ) ) ^ R     T L     ",
"    ' | +.| | +.+.+.+.+.+.+.+.+.+.+.+.+.+.+.+.+.+.} ' {  . .) ) ` ^ W ` ` ` ` ~ ) ` ` ` ` ` ` ` ` ` ) ` P                       ",
"    ' { / E { +.+.+.+.+.+.+.+.+.+.+.+.+.+.+.+.+.{ G   A R U   R ) D 5 Y ` ` E ( ~ ~ _ R ~ ` ) ` ) K T ~ L                       ",
"          ' | ' | +.+.+.+.| +.+.+.+.+.+.+.+.+.@.^ e             S u i < Y F       K L E T R K ) `                               ",
"                ( O.} / K E | +.+.+.+.+.} } +.+.!   h s           i i i w $               6   A L                               ",
"                          [ +.} } +.+.} P   P E       z s         i i i i & O           i                                       ",
"                        { | !   K [ } P               M z a       i i i i 7 O           u                                       ",
"                      E / K                             m l a     i i i i u +           7                                       ",
"                                                          m h i i i i i i i 7 O       8 *                                       ",
"                                                          m n d i i i i i i i 7       7                                         ",
"                                                            n z p i i i i i i i i   i &                                         ",
"                                                            n n f i i i i i i i i i 8 &                                         ",
"                                                            x n z i i i i i i i i i 7 &                                         ",
"                                                            l n n s 9 i i i i i i i *                                           ",
"                                                            l n n f i i i i i i i u &                                           ",
"                                                            z n n k i i i i i i i 7 &                                           ",
"                                                            v m n z i i i i i i u &                                             ",
"                                                            n n m z i i i i i i 8 +                                             ",
"                                                            m n m z i i i i i i + #                                             ",
"                                                          m n m n z p i i i i 7 . %                                             ",
"                                                          m m n m k i i i i 9 # . +                                             ",
"                                                        m m n m m h q > 2 w 8 o . O                                             ",
"                                                      n n n m m n r 3 B ; , & . . .                                             ",
"                                                    x n n n n b y : B B : 0 # . X X .                                           ",
"                                                            t 4 B B B B ; 3 1 = - 1                                             ",
"                                              B B B N B                                                                         "
};
