/* XPM */
static char *fd75e48e892c459bc8d44b56c874cb5eYvrK6fjcAoWRJISV[] = {
/* columns rows colors chars-per-pixel */
"64 64 152 2 ",
"   c #393735",
".  c #3D3936",
"X  c #3E3C3C",
"o  c #423D3D",
"O  c #45413E",
"+  c #48403E",
"@  c #3F3E40",
"#  c #423F40",
"$  c #444242",
"%  c #4B4543",
"&  c #4D4946",
"*  c #454348",
"=  c #484649",
"-  c #4E4A49",
";  c #504645",
":  c #514947",
">  c #504748",
",  c #534D4B",
"<  c #594E4D",
"1  c #56514E",
"2  c #59514F",
"3  c #584F50",
"4  c #575251",
"5  c #5B5553",
"6  c #5E5956",
"7  c #5E5A59",
"8  c #615957",
"9  c #605758",
"0  c #635D5B",
"q  c #695F5E",
"w  c #66615E",
"e  c #69605E",
"r  c #676161",
"t  c #6C6462",
"y  c #6E6966",
"u  c #6F6969",
"i  c #706665",
"p  c #716966",
"a  c #716768",
"s  c #746D6B",
"d  c #796E6D",
"f  c #76716E",
"g  c #7A716E",
"h  c #786F70",
"j  c #777171",
"k  c #7D7472",
"l  c #7E7976",
"z  c #7E7979",
"x  c #817675",
"c  c #827976",
"v  c #857C7A",
"b  c #897E7D",
"n  c #86817D",
"m  c #8A817E",
"M  c #868180",
"N  c #8D8583",
"B  c #8D8582",
"V  c #8E8482",
"C  c #8F8482",
"Z  c #8E8483",
"A  c #8E8683",
"S  c #8D8581",
"D  c #8F8584",
"F  c #8E8684",
"G  c #8F8785",
"H  c #8F8784",
"J  c #8D8482",
"K  c #8E8985",
"L  c #8E8985",
"P  c #908684",
"I  c #918684",
"U  c #918785",
"Y  c #918685",
"T  c #908885",
"R  c #908886",
"E  c #918986",
"W  c #918987",
"Q  c #928886",
"!  c #938886",
"~  c #938987",
"^  c #928A87",
"/  c #918986",
"(  c #908788",
")  c #938B88",
"_  c #938B89",
"`  c #948A88",
"'  c #958B89",
"]  c #948C89",
"[  c #958D8A",
"{  c #968C8A",
"}  c #948F8B",
"|  c #968E8B",
" . c #968E8C",
".. c #978F8D",
"X. c #948C8A",
"o. c #988E8C",
"O. c #998F8D",
"+. c #998E8D",
"@. c #96918D",
"#. c #98908D",
"$. c #98908E",
"%. c #99918F",
"&. c #9A908E",
"*. c #9A928F",
"=. c #99918E",
"-. c #988F90",
";. c #979290",
":. c #9A9290",
">. c #9B9391",
",. c #9C9290",
"<. c #9D9391",
"1. c #9C9491",
"2. c #9D9592",
"3. c #9E9694",
"4. c #9F9794",
"5. c #9F9795",
"6. c #9C9492",
"7. c #9D9894",
"8. c #9D9895",
"9. c #9D9895",
"0. c #9D9C98",
"q. c #A19795",
"w. c #A19795",
"e. c #A09895",
"r. c #A09896",
"t. c #A19996",
"y. c #A29A98",
"u. c #A39B99",
"i. c #A59D9A",
"p. c #A59D9B",
"a. c #A79F9D",
"s. c #A39C9A",
"d. c #A6A19E",
"f. c #A8A09D",
"g. c #A8A09E",
"h. c #A9A19E",
"j. c #A9A19F",
"k. c #AAA09E",
"l. c #A9A19E",
"z. c #ABA3A0",
"x. c #ABA3A1",
"c. c #ACA2A0",
"v. c #ACA4A1",
"b. c #AAA4A2",
"n. c #AEA9A6",
"m. c #B1A7A5",
"M. c #B1A9A6",
"N. c #B0A8A6",
"B. c #B3ABA9",
"V. c #B4ACA9",
"C. c #B2ACA9",
"Z. c #BBB2B3",
/* pixels */
"# # $ X O @ $ $ $ X $ # # * # # X $ O @ $ $ X @ X $ X $ X $ @ $ @ = X O $ @ @ $ X $ $ X # $ # # # # # # $ X * o @ $ $ X X $ @ @ ",
"O $ $ o O O O X o X $ $ X $ # $ $ O @ $ $ @ * , = $ X @ X # X X   @ X X O O $ X o # # o $ $ X # # # $ # $ o $ o @ X O % - O X $ ",
"f f f s s y t e , 4 j j d j d j g s s d t 0 y j 5 , u u y a t r w w w 0 0 w w * 4 s l k z j s j s a a u a r y q = t u f u t 7 % ",
"] ] ^ A m m v x 4 w  .5.5.5.O. .&.m m m l f l n 0 0 8.0.w.w.-.O.@.B m n M B z 1 r 5.B.x.k.k.s.s.0.:. .( V x x s : B @.B B B l & ",
"I ^ V m b v x d 2 0 %.5.:.,.] ` m m m b d x x c 5 5 4.%.] ~ I ! n v v x v c k % e e.M.h.c.v.i.%.{ ( P b c d x t , m } m n n l 1 ",
"I A I m b v x x 8 0 5.8.%. .I P m m m c x x v c 0 6 #.%.~ ~ P P n v m c c c l 1 q w.m.k.k.,.~ P v v c k c d x a , m m m m v c 5 ",
"I I V m b b v x 2 6 5.6.` I P b b c x x x d x x 5 2 m ^ I ! m b n v v s k v l - 0 i.B.h.t.I m M P b b x x d x i + m [ m m m v 0 ",
"^ I V b b v c g 2 6 5.:.I V I P b v b v b x x b 6 6 m m v b b b n k f w g m v % e a.h.^ A m Z V v x k d d d k i 1 n E m n n l e ",
"! P ! b b v c d , w } ) ^ m v b n n n v v x d m 6 5 V ` F F A m n n n x t v l % w 8.A A I b b v x x x s x g g i , n | m m v c i ",
"b b I b b x x h 1 6 ) B #.m I m H H m m m x x m 6 5 A &. .F b c c m m c k :.L - t y.w.` I A b x v c c k x k g p 2 c | m b v g i ",
"v k h d d d s a & 6 u k d I m I B M n v n m n m 4 1 d v V M m B n n n g w y t - w n M m n m n n v x c c x k g p , p k g s f s t ",
"% , % % , > > % % % 1 % > 3 5 < % - - % + , + 2 - o % % ; % % % + + + + % % % % 1 2 , : 1 6 & & + , : - , : - - O , , , 2 2 2 % ",
"# s k h h h d h j s j s u 0 0 9 o , u j j j s s u y y t y t 0 1 1 p p f u s s e w y e 6 e c w = e l g f j t 6 j j k d d g g e , ",
"4 I } _ ! ! I I v M v c d v k a % w } x.b.x.p.a.7.7.@.} ^ v x 5 6 7.f.e.*.$.&.{ H H n g c n r % *.d.y.7.} s w n L F b b v v y & ",
"5 ^ F b I ! b b b m m t k x m t % 0 _ b.b.x.u.u.8.6.$.] I x g 1 w 2.*.{ %.] m m n c g s n g e 1 @.t.@.H v s 0 i v M b c c v f , ",
"2 _ ( F { ! b P m c x k v c c s $ 7 } n.n.d.s.u.8.:.O.4.~ c c 2 8 f.e.#.%.m m m n n g s n x t % *.e.K c c %.F k 0 k b v c c s : ",
", ^ } M O.v d h k x x v c v n s + w [ v.j.h.i.t.2.1.*.| T v l : 8 i.<.{ m m m v c x k g v l r % m m m I I b m I n p p k b k s - ",
": A } B v k P C A m n n n g n s O 0 *.M.m.h.u.y.#.#.} m m k l : e <.! ! m m m v n v n x l n r % x T I T ^ V b v n v k a k b k % ",
": L 6.d k _ V b n v v g v k H g O w m y.4.#.T m m m c x c g v < 8 &.` ! ! m n n m n v x f n w % g [ ~ m I m m m n n v k v m l - ",
"- l f v :._ ( Z A m m n m v m p . 6 m } T E m m v c x x c g x , 5 [ ` ! m m n m m n v v f n w % x #.[ I A m m m n v n n ] m f $ ",
"4 5 k b n b c b n v v n c x k 0 + t ^ ^ A I m A B v v v b x v 5 6 k f c m @.} } m m m m x b 0 + g [ ] ) } M m A v b v x b c y % ",
". - - > % % , % O O % % O & - $ . % < , : 2 , , 2 % 1 % ; = =   O O O & , & + & + + + 2 < 5 - o + : : , : % ; & % : : % , : - . ",
"p t q q t q 5 i 1 1 f t e f u s f f i e p p e s 3 $ r 0 9 9 7 7 6 1 1 6 6 1 5 + , p i e q 0 r 0 e w 0 w 8 8 0 5 $ 6 e q y e e w ",
" .^ ! C x x c s 1 w d.j.n.b.0.p.7.@.*.#.T x g m 7 0 0.N.C.N.b.b.d.0.@.H m m l , w *.e.e.w._ %._ ) H B B m n v s - v 5.` ^ L m p ",
"` ^ m m c k g s 2 y b.n.z.0.0.p.7.7.@.@.~ c d v 0 5 b.Z.a.u.x.0.@.H A n m v k , r  .5.:._ -.-.( m m n v c k x p , l ] $.@.) n s ",
"~ I m b c x g g 2 w d.b.b.z.0.;.7.;.@.@.` v d v 2 5 d.V.c.y.:._ ^ L _ A k v l - w ] 5.5.:.-.I V m v v x x k c i - j ] %.) m v d ",
"{ I m v x k g g 1 w n.b.x.p.x.u.7.1.;.} I v d c 8 5 F  .%.%.}  ._ _ F k l n l - e &.t.w.` V b V m m c x g g k i - g ) ] I b k s ",
"I m v c x g d g 1 0 V.n.x.p.u.w.*.} } m v x x v 6 5 v m m b v b v c k 0 l v l , q ,.&.` ( V V I v c x g g f x i , k ^ ^ V C v s ",
"b v v x k k k k 1 0 0.:.%.] ( C m n v x x g g c 5 5 m { ~ ~ F A n n n u f z l % t ,.` V I ! b c x g x d k d k i , k ^ V b b c a ",
"b v c l k k g f , w @.^ A V C C n l v x k x d k 5 5 n ] m m b c c v n n f _ K & r -.%.~ I m b x v x x g k d k q 3 c ] A c c x a ",
"v v k l k k d d , y @.7.] ` I P m n n v v v c l , 6 l L { O.I N B n n v u l f $ t _ ` O.I V I I m v v v c k c s 4 d v k d d s t ",
", , , , , : - - . 1 2 2 < 5 3 < 2 , 2 1 , 1 1 1 O % % % , , % 3 , & , O 1 . % % , 7 , 3 4 3 3 < 2 , , < < , 5 % # , , 2 4 9 3 < ",
"O 6 t 0 y t r y y y t r t q i q o : p i i p e < w d a r i e r - O w w 0 t t t e e e e t w y w O 6 f p f a d y y i e i q e 5 0 % ",
"1 n b.a.p.u.w.5.]  .` F I c c h O k 4.I ~ v t k c L } b I V k 7 6 n %.4.w.O.` ~ @.m m m x n g + k h.f.m u.}  .%.] ^ m s c k s , ",
"% n n.x.c.u.5.5.6.:.:.` I c x d o k ] ` m p x c a k v M v d v , : n 7.4.,.o.{ o.*.m m n n x i + m e.m f. .$.4.L ^ ^ v p v l y % ",
", L n.a.u.u.5.5.:. .` ( F k x d O v { d v ` V M k t c v c c z 4 1 m 6.@.O.O.O.` m m m m x x p + c h.e.*.5._  ._ m m c c B v y 1 ",
"% B n.d.i.u.u.5.8.:.$.} ^ k k k O s f c I b ` x v n y y m x c , , b :.-.-.-.{ I ) m E m v c s % n f.2.@.2.H l k v c v b l k f - ",
"$ m n.d.a.u.u.5.;.$.} F A k k s % , n @.V b I V M n n w k v k 3 - b 5.5.6.-.o.` m m n n c x t $ k 2.t.2.g x v m m v n v k n l % ",
"& n n.0.t.5.4.4.} ` F M A c c g   u @.B A I ~ m v v n g d k _ - 1 v :. .( ( I I n n v c x x p % g h.1.s n ^ } m m n c c k m g $ ",
"& l d.6.:. ._ F M b v k l g g p O w $.} A I V m B z n k B M L , 4 v _ F I C v v v c g x d x y $ g m f E ) A H m m m v v m n f & ",
"1 L p.y.4.` ^ I n m m n n n n w X w @.$.} ] _ I m B B v n L z 5 w B } } ) ] T m m n n v v z r - w y m m K m m m n n B v v v r - ",
"+ 8 8 4 5 5 5 5 6 1 1 1 1 , 5 + X O 6 2 2 2 5 , 5 % , 1 - - & X % 4 6 4 2 1 5 5 8 2 , 1 4 4 % $ : : 2 , 1 , 2 < 4 , : , , , % O ",
"0 0 5 5 9 5 5 5 & O 6 0 6 w 6 0 w 8 8 8 5 1 0 e 6 O 1 5 - , , 4 = % - % , & & O O 6 0 8 0 6 6 5 5 5 8 2 5 2 2 < # 4 5 0 w 8 4 o ",
"^ ^ I ^ m v v k 6 6 7.d.0.7.*.1.} [ I m k t v V 6 6 $.0.@.7._ B K B n c m n k 1 w *.j.7.7.0.@.*.@.@.@.m m v v s - l I ^ M v j % ",
"! I P I c c b d 4 6 d.d.k.k.q.w.O.` P b v f v z 6 6 6.6.[ *.#.#.K m v x c b g , 0 8.M.d.d.d.u.e.#.{ T n v g x p 1 m { m v m v , ",
"~ ` m m v b v d 6 6 d.d.k.a.O.P m v x x k g v v 6 6 @.t.#.~ v v v n v v x b g 2 w 6.d.f.f.6.#.m v n v c c g x s : n T m v m v 2 ",
"I ! m I b v b d 1 0 j.f.u.&.! v m b m c x g c n 6 1 m ! ~ m m ! m n v x b x g : t t.v.h.t.] T m b b x x x s x i : c ! ) m m v 8 ",
"! I I m b c x x 1 6 b.f.] m m I b x n v v x k v 6 6 m n I v v v l c g 0 x v v & w y.n.*.A v T m b v g g x p g i , v { m v m v e ",
"I I I m b v x x , 0 e.[ T m I b c m m v v x x v 9 5 V ! V ^ F b b V c s s b c : t p.! P ! { A c c x d x h x x t < c ` m b m c y ",
"m I m b b b x s , 8 T ] ! m x v m n m v b x h b 5 5 b ` I A v v l v v l g A m - 0 ,.{ { P b x l x c x d h h a i < v o.I b v k r ",
"m m v x x k h h , w l c M ,.^ %.@.L I M P b b ( 6 8 v _ $.@.) K F B B n k z v & p %.{ ,.! C B ) m b x v v v b s 5 k V c x k k u ",
"2 9 2 2 5 < < 3 O % 5 & 4 0 q q 0 0 0 6 8 8 9 r % $ , , 5 6 6 5 1 1 & 1 % % : o , 0 < 0 0 9 6 6 8 2 5 8 5 9 9 : o < 5 5 5 5 5 , ",
"o 9 7 w r 0 0 9 r 5 t 0 5 5 5 3 . % 6 6 5 8 w w 0 6 0 4 5 4 5 $ o 6 5 6 0 6 0 w 0 w 2 0 w w 2 O 2 q 0 0 e 2 < 5 0 y r t t t 9 % ",
"2 m } m F ] ( b M l n c d z k y & w B @.} *.^ m B A M v v c l 7 5 } ;.} ;._ L L m H n c l c p & m o.&.m b g d x _ ^ b b b v s , ",
"2 } K n F I I Z m m n f d v v t + w ! t.2.2.*.] L ^ V Z b x k 1 2 %.i.6.4.O.] A T I m n g x s & m m m m g d g p v n b v x c s , ",
"5 } ) m O.Z b I m c v s n c x a + e m 2.&.| { { ] F m I b x z 1 8 ] t.%.O.] { ^ I n I m g l s & m &.m x m ` m c 0 k b b c c s : ",
", $._ F ` I x x k k l B c k m s + w m t.*.| &.| ^ ( P b V k v , 4 6.$.*.@.@.) ^ [ T m v x x f : v f l A } F n m v s e v c c f - ",
"1 M _ ` b h k M m b v m l k m s O 5 E t.*.*.*.&.L I V b b k v , , 4.y.y.%.@.^ ^ m m m n x g p O w c F I m M V m B l i i c v g % ",
"% A ] x d I -.m A m v b c v m s + e T *.{ ,.{ m V b b c c k v , , %.#.{ { ~ A V b v c c g x p & k O.O.` A b V v v n k e v v k - ",
": A m h I { m m m m v n v n n p o 0 m [ m m m m b l x x k h k > 2 ^ I b m P c b c x x d d x e + k ` m m I m M v l n n k ~ v f - ",
"1 0 c $.! I -.I J Z M m n m v p % r L O.` ` ( Z L B M m v c c 7 0 -.6.-.O.! I I V b b v v z t & k ,.O.{  .] %.Z F b m m ^ m s = ",
"$ 4 7 6 q 9 3 7 0 9 7 7 9 5 5 , o 4 t t r r r t r 0 0 r 0 0 9 = , u u t y t t r e 0 q 0 r r , # 4 y r r w 7 0 7 7 7 7 7 5 0 4 o ",
"$ X o X # o o * # X X o o # o o @ # # o o o @ # @ o o # # # # X @ o X X o # # o # X o o X $ @ @ # X . # O X O * X X # o X # $ # ",
"$ X = # # # * @ $ @ $ $ $ $ # $ # # o o # % # # # * # # # # @ $ $ @ $ # # # # # $ X # $ $ $ X * X $ * # @ $ @ @ @ $ # # = @ @ * "
};
