/* XPM */
static char *_20d5f396e364263e5d6e7bd21af01d12XS4KFz2nNOlCLMY[] = {
/* columns rows colors chars-per-pixel */
"64 64 252 2 ",
"   c #1D1C29",
".  c #1B1D33",
"X  c #0F1F2F",
"o  c #231E2C",
"O  c #281C27",
"+  c #221D33",
"@  c #301F27",
"#  c #1C232C",
"$  c #1B2635",
"%  c #23232C",
"&  c #2B232C",
"*  c #27272B",
"=  c #342B2D",
"-  c #36272C",
";  c #3E332D",
":  c #242432",
">  c #292433",
",  c #262A33",
"<  c #2B2B34",
"1  c #2D2B3A",
"2  c #252639",
"3  c #332B33",
"4  c #3B2D32",
"5  c #372B37",
"6  c #2C3336",
"7  c #2C343B",
"8  c #2C3938",
"9  c #333234",
"0  c #3C3335",
"q  c #34343C",
"w  c #3D333A",
"e  c #343A3D",
"r  c #3B3B3B",
"t  c #28191E",
"y  c #452C2B",
"u  c #46322C",
"i  c #55352D",
"p  c #462E35",
"a  c #443334",
"s  c #4B3434",
"d  c #43353B",
"f  c #4A353B",
"g  c #453A3C",
"h  c #4B3A3B",
"j  c #473A36",
"k  c #533434",
"l  c #54353A",
"z  c #543B3C",
"x  c #5B3B3B",
"c  c #593935",
"v  c #562D29",
"b  c #633D36",
"n  c #693B39",
"m  c #6F3D36",
"M  c #3D433F",
"N  c #4C403D",
"B  c #5B433C",
"V  c #584339",
"C  c #66453A",
"Z  c #73443C",
"A  c #7A483A",
"S  c #724E39",
"D  c #353A41",
"F  c #3B3D43",
"G  c #383743",
"H  c #2D3845",
"J  c #1C2641",
"K  c #4A3B42",
"L  c #453841",
"P  c #533D43",
"I  c #683D45",
"U  c #3E454A",
"Y  c #3B4548",
"T  c #37454E",
"R  c #42444B",
"E  c #454749",
"W  c #554443",
"Q  c #5D4A4A",
"!  c #5C4646",
"~  c #4A5254",
"^  c #4D555A",
"/  c #4A5758",
"(  c #51555B",
")  c #545C5D",
"_  c #575B58",
"`  c #514E50",
"'  c #634345",
"]  c #6C4343",
"[  c #624C44",
"{  c #6C4C4C",
"}  c #664A48",
"|  c #764B46",
" . c #69544A",
".. c #77564A",
"X. c #684D52",
"o. c #6C5253",
"O. c #6A5758",
"+. c #715353",
"@. c #745A55",
"#. c #7D5D53",
"$. c #755B5C",
"%. c #7A5D5D",
"&. c #765556",
"*. c #724F51",
"=. c #58625F",
"-. c #4D605C",
";. c #63635D",
":. c #7C625D",
">. c #796258",
",. c #7D624D",
"<. c #545D61",
"1. c #5B5E62",
"2. c #565561",
"3. c #4F5C62",
"4. c #6B5F64",
"5. c #745D61",
"6. c #7B5E62",
"7. c #7C5661",
"8. c #566163",
"9. c #5B6365",
"0. c #5D6966",
"q. c #5D6569",
"w. c #5D6A6B",
"e. c #566569",
"r. c #5B6F6C",
"t. c #616569",
"y. c #636B6D",
"u. c #666868",
"i. c #766262",
"p. c #7B6263",
"a. c #7D6669",
"s. c #7D6A6A",
"d. c #67726D",
"f. c #656D72",
"g. c #696D72",
"h. c #647273",
"j. c #6B7374",
"k. c #6C7678",
"l. c #727B7C",
"z. c #737776",
"x. c #766D73",
"c. c #844A3C",
"v. c #87523D",
"b. c #854C44",
"n. c #895648",
"m. c #93554B",
"M. c #945A4B",
"N. c #9B5B4D",
"B. c #985749",
"V. c #875653",
"C. c #955B53",
"Z. c #9B5C54",
"A. c #985958",
"S. c #894F4D",
"D. c #A45C54",
"F. c #A85D4C",
"G. c #9A624C",
"H. c #8D6C5C",
"J. c #876757",
"K. c #946553",
"L. c #9C6255",
"P. c #9D635B",
"I. c #976C5B",
"U. c #8C725C",
"Y. c #93735D",
"T. c #9B755A",
"R. c #88624B",
"E. c #AA674E",
"W. c #A46355",
"Q. c #A2645C",
"!. c #A46A5C",
"~. c #AA6759",
"^. c #B36E53",
"/. c #B46C58",
"(. c #A8745B",
"). c #B57254",
"_. c #B4735A",
"`. c #B57A5C",
"'. c #BC7B5C",
"]. c #BA7658",
"[. c #B46E4E",
"{. c #875D61",
"}. c #816464",
"|. c #836B6D",
" X c #866B66",
".X c #996A63",
"XX c #8D7264",
"oX c #8C736B",
"OX c #86736C",
"+X c #947563",
"@X c #9A7564",
"#X c #9B7A65",
"$X c #94756B",
"%X c #9A766A",
"&X c #957A6D",
"*X c #9B7B6C",
"=X c #957964",
"-X c #856E71",
";X c #8C7474",
":X c #9C7C72",
">X c #967974",
",X c #A26663",
"<X c #A46A63",
"1X c #AA6B63",
"2X c #A36B69",
"3X c #AA6C69",
"4X c #A5746B",
"5X c #AC736C",
"6X c #AC7A6C",
"7X c #A57667",
"8X c #B57B64",
"9X c #BB7C63",
"0X c #BB7D6A",
"qX c #B47766",
"wX c #AC7572",
"eX c #AB7A73",
"rX c #A57873",
"tX c #B27974",
"yX c #B47874",
"uX c #AC6C6A",
"iX c #C3795A",
"pX c #C17D63",
"aX c #C47C6A",
"sX c #B9815F",
"dX c #9C8374",
"fX c #9C8479",
"gX c #9A8679",
"hX c #9C816F",
"jX c #A2826E",
"kX c #BB8265",
"lX c #BD836B",
"zX c #B8856B",
"xX c #A38474",
"cX c #A3847A",
"vX c #A78776",
"bX c #B98775",
"nX c #BF9179",
"mX c #C38165",
"MX c #C3836C",
"NX c #C48A6D",
"BX c #CB8769",
"VX c #C38B74",
"CX c #C68977",
"ZX c #C89178",
"AX c #D18D73",
"SX c #C0805D",
"DX c #777C81",
"FX c #AB7D80",
"GX c #7B8086",
"HX c #968885",
"JX c #AB8881",
"KX c #C79282",
/* pixels */
": : : : : : 2 > , O % : $ & & 2 o o & % > + > % O $ 2 & + > : > > > + % > : > > > + > > + > : : o : : % : < o : 2 : > # $ : > 2 ",
"% & o % & O & o $ # < 2 : & & : 7 < & % 1 > 1 q y X : % : 2 % :   : : # : % :   o : & % % < * * : > , : : % + : o O & & < @ + + ",
"! } Q Q Q ! Q W p b M.P.L.W.E.W.B.E.G.G.Z.b.W.lX@.7 U R Y F U R R R R R Y R R 1 b | &.V.S.S.*.S.b.....| | b.| | = z Q Q Q ! P 3 ",
"5.p.p.p.}.6.%.$.a ..NXZXZXAXAXZXNXZXNXNX9XG.`.kX| , u.z.l.DXl.l.l.k.g.f.9.y.) e m 2XyXtXyXtX5XtXtX6XqX1XqX~.W.m.4 O.}.%.a.6.5.5 ",
"$.:.%.p.:.%.%.+.f ..MXCXCXCXCXbXbX0X0XlXqX~.bXMX..6 d.d.d.y.d.d.9.) 8.8.) q.=.8 m @XwX2XeXeXwX7X2X2X2X2X2XP.A.S.- $.}.$.6.6.6.w ",
"$.p.%.6.6.p.6.+.u A NXNXVXVXzXbXkX`.'.8XW.G.kXlX| < y.d.h.d.u.8.y.9.y.9.<.9.8.6 m 4XyXwXyXuX3X3XQ.Q.!.D.D.B.Q.S.4 o.6.%.p.6.5.L ",
"$.p.%.6.p.6.%.+.4 A AXCXbX0X9X9XMX9X].qX9XqX9XaX| 6 / / <.1.1.8.9.<.9.~ ) 9.q.e m 2XbX5X3XQ.<XP.<XQ.P.C.N.S.D.b.= o.a.i.p.6.6.W ",
"$.p.6.i.p.6.6.+.w | MXlXbXzXiXmX).`.9X8XMX_._.AX| 8 ~ ) 1.2.^ 8.) ^ ^ F ( t.y.6 Z 2X4X<XQ.P.<X!.P.C.M.m.Z.m.Q.b.= o.p.>.%.}.}.Q ",
":.$.p.%.p.i.%. .5 | NXmXqXlX_._.qXzXlXpX9XqX/.NX..1 ^ =.r.e.q.4.q.q.9.9.~ ) j., Z 2XQ.Q.1XQ.Z.Z.B.m.N.m.C.m.D.b.4  .p.i.i.J.&.Q ",
"*.+.#.@.@.+.o.{ 4 S ].`.kX`.].iX'.kX9XiXkX0X].ZX..7 / ;.w.8.) ) _ 9.t.9.y.DXGX7 m 7X!.Q.1XP.m.N.A.D.A.N.D.Z.A.b.f O.}.5.%.+.&.P ",
"X.X.! I X.! ! I - V.G.L.J.bXzXbXVXbXlX9XbXzXzXKXV 7 ~ =.w.w.d.h.y.j.y.t.) ^ ^ , m .X,XA.Z.Z.Z.Z.D.B.C.N.N.N.N.c.4 c [ Q } b } ` ",
"% < = = 9 3 9 = o y i v y l c z 5 a k s z k l Q u : 3 5 G 1 q # 6 , * < 6 % , , 4 - - s y a a y 5 4 p p 5 w d 3 - - u 0 a y p + ",
"; +.#.#.#.#.#.#.u...,.>. . .! W @ n v.K.K.G.B.G.G.L.G.B.C.B.B.C : R E E ~ E E ~ U R U q Y w.( % C #.....J.S V J.i.:.>.:. X:. .e ",
"s oX&X+X$X>X&X*X&X@X=XXX>.dX=X..1 ..pXCXZXAXAXCXCXZXCXVXbXaXMXZ D k.l.l.z.k.j.j.j.j.9.( 9.y.E = Y.jX#XhX=X..V U.>X7X#X$X:X7XJ.a ",
"z ;X$XH.$X$X$X@XrX@X$X}.-X$X#X#.= c.].bXCXNXNXCXbXVXNXCXnX9XmXb 8 j.f.j.l.d.d.w.=.t.=.~ <.e.e e XX$XoXoX:.;.Q  .XXT.#X+X=X7X>.4 ",
"j oX+X+X=X#X+X=XXXY.J.OXgX=X=X,.= v.].nXKXCXnXnXZXnXNXZXZX'.mXx 7 l.k.k.d.=.0.0.t.) ^ ^ q.g.R 5 H.*XXX,.XXJXoXs.[ ,.+X=X&X=X:.0 ",
"; XX@X@X$XXX@.:.>. X$X*X+X*XxXJ.> c.'.ZXJXKXNXCXZXCXNXZXbXiXmXV 8 l.j.y.=.t.e.e./ ) <.<.e.w.U * J.H.J.=X=X+X+X#X>X>. .s.hX@XJ.3 ",
"; XX%X+X>.>.oX$XfX>X>X>X&XXXfX X$ A '.ZXCXVXzXnXbXbXlXbXbXpXmXP e j.t.y.q.q.<.<.=.t._ _ _ d.E = #.XXXX*X%X*X$X:X$X=XXX@.XX#X&X= ",
"; OX&X#.#.dX&X&XY.U.U.U.=XY.xXJ.> A iXMXaXBXmXaXmXmX'.`.0X].iXc 7 f.t.9.1.) ( 1.e.9.y.e./ f.Y % R.#X@X+X+X+XY.+X$X=X=X XdX*X X< ",
"r p.#.J.>X&X&X+X@XrXjXrXxXxXvXJ.% A `.8XaX'.`.qX].`.).`.qX).'.c 8 q.9.9._ _ =.q.8.9.t.9.~ d.R 9 #.:X*X%X$X:X*X*XXX=X&XdXcXvX X9 ",
"a c ..H.U.+XH.@XXX+XXX+XU.XXXXC @ ..sX`.aXmXkXmXiX'.iXiX'.iXiXA 6 ~ ~ ) y.h.h.h.j.y.g.z.u.DXE & #.+X*X#X*X@X@X@XhX7XT.Y.+X@X..- ",
"% e q w 5 3 0 & 4 = 3 4 & 0 w & # f z a l l s k P w z k f j a o # , # < 1 , < , , < * > < Y 1 < = q w 0 0 9 9 - 7 & a 0 w 4 3 $ ",
"n.v.v.v.m.b.c.n.N a Q  .[  . .o. .@. .S ..@. .R.L : f a G G d G L d d w w d d 3 y ] | Z b | n ] n n n n n n I b - Z v.n.n.n.M.| ",
"MXkXBXiX/.].9X[.B S gXgXvXcXvXvXxXvXdXvXxX$XJ.vX! f J. X$X-X X;X-XoX-Xp.:. X$.u Z 2XtXtXtXwXwXyX6XtXyX5X5X<X<XS.i 7XmXZXNXBXAXL.",
"8X9X9XkX9X_.).^.B ] cXgXcXgXgXdXxXdXcXdXxX=XJ.hXB u s.;X|.|.-Xs.p.p.$.p.p.p.O.s m 2XeXwXrXrXeX4X3X1XQ.,X3XD.Z.n.i E.bXVXZXKXNXI.",
"kXpX'.9X].).[.).] C :XxXcXcXcXxXxXdXcXcXcX*XJ.7X! u i.|.-Xa.a.p.%.6.i.p.O.p.i.4 n .XtXyXwXwX4X<X,X2X,X.XD.A.A.S.c E.lXVXCXCXlXP.",
"lX0X8X`._._.)._.C C vXjXxXvXxXjXxXxXcXdXjXY.J.7XW a O.%.6.6.5.6.$.i.i.O.O.5.p.a Z 7XqX5X2XI.W.!.I.I.C.M.M.M.P.b.i E.kXbXNXlXkXI.",
"'.].).).[.[.[.].V V vXxXdXdXxXfXdX&XdX&XhXY.J.=X! a X.o.+.&.+.&.6.o.} h $.p.p.0 m 3X5X1X<XQ.Q./.W.Z.N.B.B.Z.D.I i E.9XmXaX0XpX!.",
"_.).^.^.(./.).).W B :X$X>X:X$X$X&X$X+X$X$XXXH.@XW u o.%.%.}.}.6.%.6.p.X.*.O.i.w I rX2X.X,X,XP.A.C.S.A.A.m.m.A.S.c (.zXkX9X0X9XI.",
"_././._._._._._.x C #X#X@X@XY.Y.Y.K.H.K.K.K.K.I.h y o.}.%.%.%.o.6.5.i.s.+.FX;X4 Z <X1XW.P.P.Z.C.N.N.N.Z.D.Z.D.b.c [.8X`.]._.).M.",
"^.^.^.).[.[.[.E.c  .=X=XY.=XY.Y.@X+XY.U.U.Y.Y.Y.g a X.s.a.-X-Xx.s.x.s.-XO.5.4.4 m Q.W.~.W.D.D.D.D.F.N.D.D.D.D.b.C F.^.[.[.E.[.B.",
"c c c c l s s u & w h V z z h h j d j j g g h j < & - a a 0 5 r a g 0 - d - = < p P y k l l l k s s p k k p f y o b c C m C C c ",
"o n C I ] Z I Z A Z Z Z c.m A A # k n.G.B.v...! v.J.G.G.B.M.M.y & B [ Q [  . .S } [ [  .[ ..[ # 8 U Y Y U U Y Y Y Y Y 6 Y e e # ",
"L V.4XrXwX4XtXwXwX4X4X5X3XZ.,XP.& H.NX`.AXqX#..XqXMXiXVXlXBXpX*.W J.dXgXdXjXdXdXxXgXdXhXoXY.>.7 U h.9.9.y.t.9.f.0.9.9.( j.) R 7 ",
"p C.6XtXyX5XyXtXwX5XwXwX3Xm.Z.C.- L.BXSX5XV.I.~.v.(.BX8X0X).BXx j R.jXgXxXjXxXcXxXcXvXjX&XT...* ~ 9.9.w.9.9.q.<.q.<.<.y.t.q.E , ",
"p C.6XwX5X6XyX4XwXwXeXyX5XD.D.Z.& P.mXG.I.zXzXmX(.S T.zX9XNX9Xc j J.jXgXxXxXdXdXxXdXjXjX*X@XR.1 ~ q.) w.f.q.1.q.9.<.9.j.) y.^ 1 ",
"p C.6XwX5XeXtXrXtXwXrX5X3XD.L.M.& A.K.K.bXiXpX8XaXbX..M.CXaXaXc a J.*XgXvXxXfXxXcXgXhXhX&XT.#.& ~ w.q.9.) ~ ~ ) <.9.g._ y.t.( < ",
"4 m.eXeXeXwXyXwXwX4X2X7X2XZ.L.n.& c XXvXaX'.kXaXaXyXzXS Z.pXAXf 0 J.xXHXdXxXgXcXcXdXdXhX&X@X@., E e.9.9.( 1.f.9.w.y.y.=.t.g.9.% ",
"5 m.7XrX3X<X2X<X1X.XI.Q.Q.Z.Z.m.o V.bXmX9X9XzX8XzXkXkX#X+XzXNXW j J.rXgX*X#X>X#X@XoX+X+XoXY..., U y.) ^ t.y.4.q.q.8.) q.) k.) * ",
"p m.P..XQ.P.D.Z.A.Z.Z.Z.A.N.Z.b.# v.mX'.0XmX8XkXiXpXaXkXzXbXKXn g R.@XoX+X@X+XY.+X XK.H.}.K...: U ) ^ q.t.9.9.q.8.y.0.0.d.l.^ , ",
"v A.uX/.1XD.~.~.D.W.Q.D.~.~.1XA t ..NXAXBXMXCXpXmXAXmXVXMXBXqX] B +X(.*X*X(.T.+XT.T.@XT.T.#X .- Y U ^ <.e.9.e.w.u.u.r.g.u.r.M < ",
"& h x l x l l l b z l k l k c 4 : 0 c b C ! B c W k c c c i s @ 1 g h g g s N N N K h j N N G : * < 9 < 9 = < < 7 , , > > 6 # $ ",
"P ! c c l x x k 3 # 8 q 8 7 G H 8 Y q q H 2 D ( T - B h f f f L F j a d K a z & O d L d s a w L d a d 0 f w d 4 # k x } ] P l , ",
"3XQ.W.!.Q.Q.,XD.h e w.h.h.h.h.j.r.y.u.q.e./ <.z.j A BXBXZXZXNXNXVXmXmXkXmXSXmXA s p.-X}. X X}. X|.s.|.a.}.5.5.X.a C.W.~.~.W.m.; ",
"Q.Q.~.3X.X,X1XD.c 0 y.x.z.l.z.z.d.d.u.y.<.^ _ u.H [ NXlXnXvXVXMXlXmXlXzXqX9XqXn j s.;X-X;X>X;X X|.|.|.|.}.&.&.' p .XQ.Q.,X1X,Xa ",
"P.!.Q.I.P..X,Xm.l 8 h.z.z.h.u.t.q.8.e.e.~ ~ t.u.7 C mXAXCX8XMX9X9X9XpXlXqXiX9XZ j p.-X|.-X-X|.a.%.5.%.%.@.o.$.} 3 A.Q.,X,X,X2Xh ",
"Q.!.~.Q.Q.!.!.N.z 8 k.z.j.r.w.9.t.8.3.3.) ) =.d.Y C qXpX0XqX0X0X0XmXbX7X8XmX8XC f }.;XoX-X}.6.%.p.p.@.+.+.{ &.' y Z.!.,X,XW.1X] ",
"P.,XQ.,X,X.XQ.N.c 8 r.x.y.-.0.t._ _ ) 8.0.) ^ h.j C _./.).`.iXqX_.).~.c.W.mXlXC L |.-X X6.5.a.5.%.+.o.{ X.{ 7.] y A.P..X,X!.uX] ",
"L.Q.<XQ.Q.,X,XA.l 3 d.<.1.y.e.( _ ) q.9.t._ ^ k.T C '.`.9XmXkX'.mX6X9XL.K.kXmXb K |.p.5.5.i.$.&.{ { { { { *.+.! p A.3X.X.X1X,X| ",
"P.P.P.P.,XQ.Z.C.f 6 0.w.9.<.) ) e.8.e.e.q.<.~ r.H n '.8XaXqX(.(.E.zX8XzXH.ZXZXx d :.J.p.6.+. .*.{ { *.*.{ { +.' u C.~.!.Q.D.D.| ",
"N.m.m.N.B.B.B.m.a e T 9.( f.w.f.k.h.h.j.l.j.j.HXh A `.mXCXMXlXMXNXAXNXCX7XqXbXZ K %.:.p.{.&.@.7.$.@.@.%.$.+.$.} i S.D.Z.S.m.B.b.",
"l z l k k k k k = & 8 * q R R Y F G r r g Y r ` 1 u C { ..| +.o.+.] ] { ' v } p * a ; d j u h G j a a f h d d = & k c l l b x l ",
"& L K L K K K K z d W 0 d d 4 4   ; z V W W N B E V B z z c z 3 & i c z x b n n I ] n I I m I o 9 e q F w q q 7 H Y Y Y R R D # ",
"u O.:.%.%.J.}.6.%.6.5.i.O.|.{ [ = Q U.$XdXfXdXxX:X*X#X@X+XT.T.V c !.1X4X5XqX<X1XuXuX1X,XQ.D.m.- <.w.w.w.<.^ ^ ^ w.0.0.e.y.q.~ 7 ",
"w 4.6.5.6.5.i.5.i.6.{.X.i.}.6.V = [ U.6XxXdXxXxXvXdXcXHXgXY.#Xg P 1XeX:XtXwXeXeX6X6XqX.XI.F.C.# 3.w.9.9.^ ( ^ ^ 1._ t.4.t.0.` < ",
"d 5.5.6.}.6.}.a.p.%.%.p.x.5.}.Q & Q H.vXcXdXxXxXvXhXcXJXgXU.6Xg l uXqXrXyXrXFXwXrXwXyXwXA.D.A.1 ) q.) 1.1.y.1.2.U ^ 9.q.1.9.~ , ",
"= i.%.%.i.i.o.X.X.5.O.-Xa.6.a.X.3 B U.dXgXgXgXxXgXxXxXgXdXY.&XN k wX5X6X4XtXwXwXrX5XwXrXL.F.m.3 ~ ^ ) 9.9.9.9.9.w.^ E w.9.f.~ , ",
"0 $.:.p.O.X.O.6.p.s.p.a.5.5.-XO.& B Y.vXvXxXjXvXdX7XjX:X6X@X$Xa y wX6X6XwXtXrX4X6X3XuX2XW.D.V.O r ( t.9.1.t.y.q.9.w.^ U 9.w.( < ",
"& $.a.o.X.p.-X6.%.%.p.:.p.%.;Xo.> ! U.dXdX#X&X&XhX*X+X>X$X+X&Xf p uXwX2X3XuX2X2X2X,X.X.XA.W.V.2 ^ 9.y.8.q.q.8.8.q.y.9.E 9.y.e.# ",
"3 O.o.X.a.a.$.%.}.%.p.@.p.p.>X{ + E U.$X$X=X=XoXU.U.H.U.J.J.U.j v ,X,XI.P.L.L.L.A.N.D.C.B.N.*.o ~ =.9.=.0.=.=.q.8.=.q.y.g.l.9.* ",
"d f } p.i.5.|.}.s.s.|.-X-X-Xs.! & [ T.6X7X=X@X*XT.T.T.=X@XT.Y.k m 1X^.!./.1X~.~.,XW.E.D.~.~.A - ~ y.k.y.f.j.y.y.y.j.y.j.z.g.R < ",
"O L K 0 h K d f L f w a 5 0 g = + j [ } ! C [ [ Q } [ } Q } ' 3 p I ] ' ] I I I ' C C I I ] f + 6 F R Y F F F D G G G D G G 1 * ",
"o % & O , : o & o o % > > % > % 2 : o . : % % o   > o . . O : . $ +   $   + , : + # : + + : # J :     o : : % > <   , :   + , : ",
"2 o > # 2 . : 2 , : : : > % : : : % & 2 2 % % 2 : & % $ , % % $ 2 @ & , : > > + : * : : > > % , > > > : % > > : : % > > > > o 2 "
};
